<?xml version="1.0" encoding="UTF-8" standalone="no"?>
<!-- Created with Inkscape (http://www.inkscape.org/) -->
<svg
   xmlns:svg="http://www.w3.org/2000/svg"
   xmlns="http://www.w3.org/2000/svg"
   version="1.0"
   width="555"
   height="514"
   id="svg2">
  <defs
     id="defs5" />
  <path
     d="M -83.93525,246.1916 L -83.93525,247.2156 L -99.67925,247.2156 L -99.67925,246.1916 C -97.076606,245.9356 -95.540608,245.4236 -95.07125,244.6556 C -94.815275,244.2716 -94.687275,243.65293 -94.68725,242.7996 C -94.687275,242.45827 -94.729942,241.9036 -94.81525,241.1356 L -96.09525,232.7516 L -110.17525,232.7516 L -113.82325,239.9836 C -114.67659,241.69027 -115.10325,243.01293 -115.10325,243.9516 C -115.10325,244.89027 -114.74059,245.4876 -114.01525,245.7436 C -113.54592,245.91426 -112.64992,246.0636 -111.32725,246.1916 L -111.32725,247.2156 L -123.29525,247.2156 L -123.29525,246.1916 C -121.97258,245.9356 -120.88458,245.2956 -120.03125,244.2716 C -119.13525,243.20493 -117.47125,240.60227 -115.03925,236.4636 L -96.47925,204.4636 L -94.81525,204.4636 L -88.79925,240.6876 C -88.329948,243.2476 -87.796616,244.7836 -87.19925,245.2956 C -86.644617,245.76493 -85.556618,246.0636 -83.93525,246.1916 M -108.83125,230.4476 L -96.41525,230.4476 L -99.23125,213.8076 L -108.83125,230.4476 M -64.97025,245.1036 C -58.698272,245.1036 -54.17561,244.1436 -51.40225,242.2236 C -49.951614,241.1996 -48.159616,239.23694 -46.02625,236.3356 L -45.00225,236.8476 L -48.97025,247.2156 L -81.41825,247.2156 L -81.41825,246.1916 C -79.412918,245.85026 -78.111586,245.31693 -77.51425,244.5916 C -77.087587,244.0796 -76.660921,243.03427 -76.23425,241.4556 L -68.36225,213.1676 C -67.89293,211.46097 -67.658263,210.09563 -67.65825,209.0716 C -67.658263,208.04764 -68.191596,207.36497 -69.25825,207.0236 C -69.940928,206.76764 -71.05026,206.57564 -72.58625,206.4476 L -72.58625,205.4236 L -40.77825,205.4236 L -42.76225,215.2156 L -44.10625,215.0876 C -44.020954,213.63696 -43.978287,212.67696 -43.97825,212.2076 C -43.978287,210.3303 -44.724953,209.09297 -46.21825,208.4956 C -47.79695,207.85564 -51.14628,207.53564 -56.26625,207.5356 C -58.655606,207.53564 -60.084937,207.79164 -60.55425,208.3036 C -60.724937,208.51697 -60.852937,208.81563 -60.93825,209.1996 L -65.16225,224.1116 C -62.175602,224.02629 -60.49027,223.98362 -60.10625,223.9836 C -57.162274,223.85562 -55.242276,223.47162 -54.34625,222.8316 C -53.492944,222.23429 -52.468945,220.59162 -51.27425,217.9036 L -50.12225,218.1596 L -54.47425,233.0076 L -55.75425,232.6876 C -55.455609,231.36495 -55.306276,230.25561 -55.30625,229.3596 C -55.306276,227.95162 -55.882275,227.07695 -57.03425,226.7356 C -57.759606,226.52228 -58.826272,226.41562 -60.23425,226.4156 L -60.74625,226.4156 C -61.812936,226.41562 -63.476934,226.35162 -65.73825,226.2236 L -69.96225,241.1996 C -70.047594,241.7116 -70.090261,242.2876 -70.09025,242.9276 C -69.834261,244.3356 -68.127596,245.06093 -64.97025,245.1036 M 31.44675,230.7036 L 15.25475,243.8876 L 13.84675,241.7756 L 24.02275,232.5596 L -22.82525,232.5596 L -21.80125,228.9756 L 25.04675,228.9756 L 19.99075,219.7596 L 22.55075,217.6476 L 31.44675,230.7036 M 65.61275,232.2396 L 60.74875,238.3836 C 58.658076,241.1996 57.612744,243.14093 57.61275,244.2076 C 57.612744,244.9756 58.082077,245.4876 59.02075,245.7436 C 59.575409,245.91426 60.471408,246.0636 61.70875,246.1916 L 61.70875,247.2156 L 49.74075,247.2156 L 49.74075,246.1916 C 50.764751,245.9356 51.874083,245.14627 53.06875,243.8236 C 53.580748,243.26893 54.263414,242.43693 55.11675,241.3276 L 78.73275,211.5676 C 80.055388,209.9463 80.738054,208.81563 80.78075,208.1756 C 80.780721,207.1943 79.970055,206.63964 78.34875,206.5116 C 78.178057,206.51164 77.623391,206.46897 76.68475,206.3836 L 76.68475,205.4236 L 109.77275,205.4236 L 107.66075,215.2156 L 106.57275,215.0876 C 106.61536,214.53296 106.63669,213.76496 106.63675,212.7836 C 106.63669,210.69297 106.03936,209.32763 104.84475,208.6876 C 103.4367,207.91964 99.938035,207.53564 94.34875,207.5356 C 92.471376,207.53564 91.319377,207.81297 90.89275,208.3676 C 90.679377,208.6663 90.466044,209.1783 90.25275,209.9036 L 86.34875,224.1116 C 91.34071,224.06895 94.476707,223.77029 95.75675,223.2156 C 96.994038,222.70362 98.10337,221.48762 99.08475,219.5676 C 99.298036,219.14096 99.554035,218.58629 99.85275,217.9036 L 101.00475,218.1596 L 96.58875,233.0076 L 95.50075,232.7516 C 95.756706,231.21561 95.884706,230.10628 95.88475,229.4236 C 95.884706,228.01562 95.308706,227.11962 94.15675,226.7356 C 93.132708,226.39428 91.191377,226.22362 88.33275,226.2236 L 85.77275,226.2236 C 82.743385,236.97561 81.22872,242.65027 81.22875,243.2476 C 81.22872,244.48493 82.316719,245.1036 84.49275,245.1036 L 86.41275,245.1036 C 91.746043,245.1036 95.650039,244.3356 98.12475,242.7996 C 100.13003,241.60494 102.19937,239.4716 104.33275,236.3996 L 105.48475,236.7196 L 101.38875,247.2156 L 69.51675,247.2156 L 69.51675,246.1916 C 71.863396,245.97826 73.292728,245.57293 73.80475,244.9756 C 74.103394,244.63427 74.380727,244.0156 74.63675,243.1196 L 77.77275,232.2396 L 65.61275,232.2396 M 67.40475,229.8716 L 78.47675,229.8716 L 84.55675,207.9836 L 67.40475,229.8716"
     transform="translate(147.44084,-176.54816)"
     style="font-size:56px;font-style:italic;font-variant:normal;font-weight:normal;font-stretch:normal;text-align:start;line-height:125%;writing-mode:lr-tb;text-anchor:start;fill:#000000;font-family:FreeSerif"
     id="flowRoot2191" />
  <path
     d="M -95.45525,244.5916 C -94.943275,244.5916 -93.577943,243.46093 -91.35925,241.1996 C -90.932612,240.77294 -90.591279,240.4316 -90.33525,240.1756 L -89.56725,240.8156 C -92.553944,244.5276 -94.751275,246.7036 -96.15925,247.3436 C -96.84194,247.68493 -97.609939,247.8556 -98.46325,247.8556 C -100.0846,247.5996 -100.93794,246.72493 -101.02325,245.2316 C -101.02327,244.16493 -100.5326,241.7116 -99.55125,237.8716 C -102.9646,242.65027 -105.7166,245.63693 -107.80725,246.8316 C -109.12993,247.55693 -110.66593,247.9196 -112.41525,247.9196 C -115.70059,247.9196 -117.76992,246.42626 -118.62325,243.4396 C -118.83658,242.6716 -118.94325,241.79694 -118.94325,240.8156 C -118.94325,236.16494 -117.19392,231.57828 -113.69525,227.0556 C -110.53793,222.91695 -107.0606,220.35696 -103.26325,219.3756 C -102.36727,219.11962 -101.4926,218.99162 -100.63925,218.9916 C -97.823272,218.99162 -96.116607,220.22896 -95.51925,222.7036 L -94.81525,219.6316 L -94.62325,219.4396 L -90.71925,218.9916 L -90.27125,219.1836 C -90.313946,219.35429 -90.441946,219.80229 -90.65525,220.5276 C -94.452609,234.43694 -96.351274,242.18093 -96.35125,243.7596 C -96.351274,244.2716 -96.052607,244.54893 -95.45525,244.5916 M -96.67125,224.3036 C -96.671273,222.29829 -97.545939,221.06096 -99.29525,220.5916 C -99.67927,220.46362 -100.10594,220.39962 -100.57525,220.3996 C -103.9886,220.39962 -107.14593,223.19429 -110.04725,228.7836 C -112.05259,232.62361 -113.20459,236.10094 -113.50325,239.2156 C -113.54592,239.51427 -113.56726,239.77027 -113.56725,239.9836 C -113.56726,242.45827 -112.71392,243.99427 -111.00725,244.5916 C -110.66593,244.7196 -110.28193,244.7836 -109.85525,244.7836 C -107.1246,244.7836 -104.3726,242.71427 -101.59925,238.5756 C -98.868604,234.47961 -97.268606,230.31961 -96.79925,226.0956 C -96.71394,225.45562 -96.671273,224.85829 -96.67125,224.3036 M -65.11925,240.2396 L -64.35125,241.0076 C -67.80727,244.93293 -71.647266,247.19426 -75.87125,247.7916 C -76.468595,247.87693 -77.044594,247.9196 -77.59925,247.9196 C -80.927257,247.9196 -83.337921,246.59693 -84.83125,243.9516 C -85.641919,242.5436 -86.047252,240.9436 -86.04725,239.1516 C -86.047252,234.71428 -84.255254,230.44761 -80.67125,226.3516 C -77.215261,222.38362 -73.396598,220.01562 -69.21525,219.2476 C -68.361936,219.07696 -67.55127,218.99162 -66.78325,218.9916 C -64.052607,218.99162 -62.409942,219.99429 -61.85525,221.9996 C -61.727276,222.42629 -61.663276,222.87429 -61.66325,223.3436 C -61.663276,226.54362 -63.647274,229.31695 -67.61525,231.6636 C -70.516601,233.37028 -73.993931,234.50094 -78.04725,235.0556 L -79.83925,235.3116 C -80.265924,237.01827 -80.479258,238.34094 -80.47925,239.2796 C -80.479258,241.88227 -79.369925,243.6316 -77.15125,244.5276 C -76.340595,244.86893 -75.444596,245.0396 -74.46325,245.0396 C -72.543265,245.0396 -70.431268,244.2076 -68.12725,242.5436 C -67.273937,241.94627 -66.271272,241.17827 -65.11925,240.2396 M -79.39125,233.9036 C -71.839266,232.06894 -67.444604,229.08228 -66.20725,224.9436 C -65.993939,224.26095 -65.887272,223.59962 -65.88725,222.9596 C -65.887272,221.63696 -66.441938,220.82629 -67.55125,220.5276 C -67.721937,220.48496 -67.913937,220.46362 -68.12725,220.4636 C -70.132601,220.46362 -72.329932,221.95695 -74.71925,224.9436 C -76.255262,226.82095 -77.449927,228.86895 -78.30325,231.0876 L -79.39125,233.9036 M 14.07175,230.7036 L -2.12025,243.8876 L -3.52825,241.7756 L 6.64775,232.5596 L -40.20025,232.5596 L -39.17625,228.9756 L 7.67175,228.9756 L 2.61575,219.7596 L 5.17575,217.6476 L 14.07175,230.7036 M 71.72575,239.9836 L 72.36575,240.7516 C 69.379048,244.37827 66.051051,246.66093 62.38175,247.5996 C 61.528389,247.81293 60.69639,247.9196 59.88575,247.9196 C 57.197727,247.9196 55.235062,246.7036 53.99775,244.2716 C 53.357731,243.03427 53.037731,241.6476 53.03775,240.1116 C 53.037731,239.42894 53.165731,238.5756 53.42175,237.5516 C 49.923068,242.62893 47.064404,245.76493 44.84575,246.9596 C 43.651074,247.5996 42.349742,247.9196 40.94175,247.9196 C 38.680412,247.9196 37.080414,246.8956 36.14175,244.8476 C 35.757748,243.9516 35.565749,242.97027 35.56575,241.9036 C 35.565749,237.33827 37.272413,232.64494 40.68575,227.8236 C 43.75774,223.47162 47.064404,220.69829 50.60575,219.5036 C 51.587066,219.16229 52.547065,218.99162 53.48575,218.9916 C 55.149729,218.99162 56.344394,219.61029 57.06975,220.8476 C 57.28306,221.14629 57.496393,221.53029 57.70975,221.9996 L 58.92575,219.2476 L 63.46975,219.1196 L 62.06175,223.0876 C 65.005719,220.48496 67.608383,219.11962 69.86975,218.9916 C 72.515045,218.99162 74.15771,219.97296 74.79775,221.9356 C 74.968376,222.40495 75.053709,222.91695 75.05375,223.4716 C 75.053709,227.14095 71.832379,230.12761 65.38975,232.4316 C 64.195053,232.85828 61.955055,233.56228 58.66975,234.5436 C 58.328392,236.12227 58.157726,237.42361 58.15775,238.4476 C 58.157726,242.75693 59.651058,244.9116 62.63775,244.9116 C 65.112386,244.9116 67.90705,243.48227 71.02175,240.6236 C 71.235046,240.41027 71.469713,240.19694 71.72575,239.9836 M 56.49375,223.5356 C 56.493728,221.78629 55.747062,220.71962 54.25375,220.3356 C 53.99773,220.29296 53.720397,220.27162 53.42175,220.2716 C 51.117733,220.27162 48.685735,222.25562 46.12575,226.2236 C 43.352407,230.49028 41.709742,234.84228 41.19775,239.2796 C 41.11241,240.00494 41.069743,240.6876 41.06975,241.3276 C 41.069743,243.54627 41.795076,244.67693 43.24575,244.7196 C 45.720405,244.7196 48.365736,242.6716 51.18175,238.5756 C 53.99773,234.35161 55.704395,230.08495 56.30175,225.7756 C 56.429728,224.96495 56.493728,224.21829 56.49375,223.5356 M 59.05375,232.9436 C 64.685719,231.32228 68.269716,229.25295 69.80575,226.7356 C 70.48838,225.58362 70.829713,224.32495 70.82975,222.9596 C 70.829713,221.38096 70.083047,220.59162 68.58975,220.5916 C 64.920386,220.59162 61.741722,224.70895 59.05375,232.9436"
     transform="translate(166.37741,-96.230951)"
     style="font-size:56px;font-style:italic;font-variant:normal;font-weight:normal;font-stretch:normal;text-align:start;line-height:125%;writing-mode:lr-tb;text-anchor:start;fill:#000000;font-family:FreeSerif"
     id="flowRoot2207" />
  <path
     d="M -116.19125,233.0716 C -116.19125,226.28762 -113.65259,220.05829 -108.57525,214.3836 C -104.4366,209.8183 -99.785937,206.78897 -94.62325,205.2956 C -92.91661,204.82631 -91.273945,204.59164 -89.69525,204.5916 C -85.087285,204.59164 -81.375289,206.31964 -78.55925,209.7756 C -76.383294,212.5063 -75.295295,215.77029 -75.29525,219.5676 C -75.295295,224.81562 -77.044626,230.08495 -80.54325,235.3756 C -84.425952,241.2636 -89.247281,245.18893 -95.00725,247.1516 C -97.353939,247.96226 -99.764604,248.3676 -102.23925,248.3676 C -106.88993,248.3676 -110.53793,246.5756 -113.18325,242.9916 C -115.18859,240.26094 -116.19125,236.95427 -116.19125,233.0716 M -101.15125,246.2556 C -96.287274,246.2556 -91.956611,243.1836 -88.15925,237.0396 C -84.959285,231.91961 -82.99662,226.24495 -82.27125,220.0156 C -82.100621,218.73562 -82.015288,217.54096 -82.01525,216.4316 C -82.015288,212.07963 -83.465953,209.13563 -86.36725,207.5996 C -87.519283,207.0023 -88.820615,206.70364 -90.27125,206.7036 C -94.879275,206.70364 -98.932604,209.2423 -102.43125,214.3196 C -105.2046,218.33029 -107.27393,223.21562 -108.63925,228.9756 C -109.19393,231.45028 -109.47126,233.60494 -109.47125,235.4396 C -109.47126,241.3276 -107.55126,244.82627 -103.71125,245.9356 C -102.94327,246.14893 -102.08993,246.2556 -101.15125,246.2556 M -57.84525,245.1036 C -51.573272,245.1036 -47.05061,244.1436 -44.27725,242.2236 C -42.826614,241.1996 -41.034616,239.23694 -38.90125,236.3356 L -37.87725,236.8476 L -41.84525,247.2156 L -74.29325,247.2156 L -74.29325,246.1916 C -72.287918,245.85026 -70.986586,245.31693 -70.38925,244.5916 C -69.962587,244.0796 -69.535921,243.03427 -69.10925,241.4556 L -61.23725,213.1676 C -60.76793,211.46097 -60.533263,210.09563 -60.53325,209.0716 C -60.533263,208.04764 -61.066596,207.36497 -62.13325,207.0236 C -62.815928,206.76764 -63.92526,206.57564 -65.46125,206.4476 L -65.46125,205.4236 L -33.65325,205.4236 L -35.63725,215.2156 L -36.98125,215.0876 C -36.895954,213.63696 -36.853287,212.67696 -36.85325,212.2076 C -36.853287,210.3303 -37.599953,209.09297 -39.09325,208.4956 C -40.67195,207.85564 -44.02128,207.53564 -49.14125,207.5356 C -51.530606,207.53564 -52.959937,207.79164 -53.42925,208.3036 C -53.599937,208.51697 -53.727937,208.81563 -53.81325,209.1996 L -58.03725,224.1116 C -55.050602,224.02629 -53.36527,223.98362 -52.98125,223.9836 C -50.037274,223.85562 -48.117276,223.47162 -47.22125,222.8316 C -46.367944,222.23429 -45.343945,220.59162 -44.14925,217.9036 L -42.99725,218.1596 L -47.34925,233.0076 L -48.62925,232.6876 C -48.330609,231.36495 -48.181276,230.25561 -48.18125,229.3596 C -48.181276,227.95162 -48.757275,227.07695 -49.90925,226.7356 C -50.634606,226.52228 -51.701272,226.41562 -53.10925,226.4156 L -53.62125,226.4156 C -54.687936,226.41562 -56.351934,226.35162 -58.61325,226.2236 L -62.83725,241.1996 C -62.922594,241.7116 -62.965261,242.2876 -62.96525,242.9276 C -62.709261,244.3356 -61.002596,245.06093 -57.84525,245.1036 M 38.57175,230.7036 L 22.37975,243.8876 L 20.97175,241.7756 L 31.14775,232.5596 L -15.70025,232.5596 L -14.67625,228.9756 L 32.17175,228.9756 L 27.11575,219.7596 L 29.67575,217.6476 L 38.57175,230.7036 M 86.94575,204.5916 C 87.628388,204.59164 90.295052,204.82631 94.94575,205.2956 C 95.713713,205.38097 96.289712,205.42364 96.67375,205.4236 L 120.28975,205.4236 L 118.30575,215.0236 L 117.28175,215.0236 C 117.28169,211.9943 116.91903,210.03163 116.19375,209.1356 C 115.25503,208.06897 113.0577,207.53564 109.60175,207.5356 L 103.45775,207.5356 C 102.39104,207.53564 101.66571,208.0263 101.28175,209.0076 C 101.19637,209.1783 101.13237,209.3703 101.08975,209.5836 L 96.99375,224.1116 L 97.76175,224.1116 C 102.41237,224.11162 105.33504,223.83429 106.52975,223.2796 C 107.6817,222.76762 108.74837,221.50896 109.72975,219.5036 C 109.94303,219.11962 110.1777,218.62896 110.43375,218.0316 L 111.58575,218.2876 L 107.36175,233.0076 L 106.08175,232.8796 L 106.46575,230.2556 L 106.46575,230.1916 C 106.4657,228.57028 105.97504,227.52495 104.99375,227.0556 C 104.2257,226.71428 102.68971,226.50095 100.38575,226.4156 L 96.41775,226.2236 L 93.08975,238.3836 L 92.19375,242.2876 C 92.15105,242.50093 92.129716,242.6716 92.12975,242.7996 C 92.129716,243.9516 92.833716,244.6556 94.24175,244.9116 C 94.881714,245.0396 95.777713,245.1036 96.92975,245.1036 C 102.22037,245.1036 106.2097,244.25027 108.89775,242.5436 C 110.86036,241.30627 112.9297,239.19427 115.10575,236.2076 L 116.12975,236.5916 L 111.96975,247.2156 L 89.82575,247.2156 L 76.32175,247.7276 L 76.25775,247.7276 C 71.60707,247.7276 67.873741,245.9996 65.05775,242.5436 C 62.839079,239.8556 61.729747,236.61294 61.72975,232.8156 C 61.729747,226.07428 63.905745,219.97296 68.25775,214.5116 C 72.268403,209.4343 77.068398,206.27697 82.65775,205.0396 C 84.065725,204.74097 85.495056,204.59164 86.94575,204.5916 M 87.26575,206.6396 C 82.35906,206.63964 78.071064,209.41297 74.40175,214.9596 C 71.159071,219.90896 69.281739,225.49828 68.76975,231.7276 C 68.684407,232.58094 68.64174,233.43428 68.64175,234.2876 C 68.64174,241.88227 71.713737,245.6796 77.85775,245.6796 C 81.057728,245.6796 83.425725,244.50627 84.96175,242.1596 C 85.900389,240.66627 86.881722,238.10627 87.90575,234.4796 L 92.57775,217.3276 C 93.431048,214.21296 93.857715,212.33563 93.85775,211.6956 C 93.857715,209.64763 92.769716,208.17564 90.59375,207.2796 C 89.569719,206.85297 88.460387,206.63964 87.26575,206.6396"
     transform="translate(141.2199,-16.780101)"
     style="font-size:56px;font-style:italic;font-variant:normal;font-weight:normal;font-stretch:normal;text-align:start;line-height:125%;writing-mode:lr-tb;text-anchor:start;fill:#000000;font-family:FreeSerif"
     id="flowRoot2215" />
  <path
     d="M -90.07925,227.9516 C -90.07928,231.83428 -91.551278,235.75961 -94.49525,239.7276 C -97.823272,244.12227 -101.70593,246.7676 -106.14325,247.6636 C -107.08193,247.83426 -107.99926,247.9196 -108.89525,247.9196 C -113.03392,247.9196 -115.87125,246.3836 -117.40725,243.3116 C -118.00459,242.0316 -118.30325,240.58094 -118.30325,238.9596 C -118.30325,234.22361 -116.51125,229.82895 -112.92725,225.7756 C -109.47126,221.89295 -105.5246,219.67429 -101.08725,219.1196 C -100.44727,219.03429 -99.828604,218.99162 -99.23125,218.9916 C -95.604608,218.99162 -92.98061,220.35696 -91.35925,223.0876 C -90.505946,224.49562 -90.07928,226.11695 -90.07925,227.9516 M -107.93525,246.5756 C -104.6926,246.5756 -101.76993,244.25027 -99.16725,239.5996 C -96.90594,235.50361 -95.668608,231.34361 -95.45525,227.1196 C -95.455275,226.86362 -95.455275,226.60762 -95.45525,226.3516 C -95.455275,223.40762 -96.415274,221.50896 -98.33525,220.6556 C -98.847271,220.44229 -99.401937,220.33562 -99.99925,220.3356 C -103.0286,220.33562 -105.88726,222.46895 -108.57525,226.7356 C -111.17793,230.83161 -112.60726,235.11961 -112.86325,239.5996 C -112.90592,239.9836 -112.92726,240.3676 -112.92725,240.7516 C -112.92726,243.52493 -111.92459,245.33826 -109.91925,246.1916 C -109.32193,246.4476 -108.66059,246.5756 -107.93525,246.5756 M -65.11925,240.2396 L -64.35125,241.0076 C -67.80727,244.93293 -71.647266,247.19426 -75.87125,247.7916 C -76.468595,247.87693 -77.044594,247.9196 -77.59925,247.9196 C -80.927257,247.9196 -83.337921,246.59693 -84.83125,243.9516 C -85.641919,242.5436 -86.047252,240.9436 -86.04725,239.1516 C -86.047252,234.71428 -84.255254,230.44761 -80.67125,226.3516 C -77.215261,222.38362 -73.396598,220.01562 -69.21525,219.2476 C -68.361936,219.07696 -67.55127,218.99162 -66.78325,218.9916 C -64.052607,218.99162 -62.409942,219.99429 -61.85525,221.9996 C -61.727276,222.42629 -61.663276,222.87429 -61.66325,223.3436 C -61.663276,226.54362 -63.647274,229.31695 -67.61525,231.6636 C -70.516601,233.37028 -73.993931,234.50094 -78.04725,235.0556 L -79.83925,235.3116 C -80.265924,237.01827 -80.479258,238.34094 -80.47925,239.2796 C -80.479258,241.88227 -79.369925,243.6316 -77.15125,244.5276 C -76.340595,244.86893 -75.444596,245.0396 -74.46325,245.0396 C -72.543265,245.0396 -70.431268,244.2076 -68.12725,242.5436 C -67.273937,241.94627 -66.271272,241.17827 -65.11925,240.2396 M -79.39125,233.9036 C -71.839266,232.06894 -67.444604,229.08228 -66.20725,224.9436 C -65.993939,224.26095 -65.887272,223.59962 -65.88725,222.9596 C -65.887272,221.63696 -66.441938,220.82629 -67.55125,220.5276 C -67.721937,220.48496 -67.913937,220.46362 -68.12725,220.4636 C -70.132601,220.46362 -72.329932,221.95695 -74.71925,224.9436 C -76.255262,226.82095 -77.449927,228.86895 -78.30325,231.0876 L -79.39125,233.9036 M 14.07175,230.7036 L -2.12025,243.8876 L -3.52825,241.7756 L 6.64775,232.5596 L -40.20025,232.5596 L -39.17625,228.9756 L 7.67175,228.9756 L 2.61575,219.7596 L 5.17575,217.6476 L 14.07175,230.7036 M 72.04575,240.4956 L 72.74975,241.1996 C 68.269716,245.6796 64.067053,247.94093 60.14175,247.9836 C 57.240394,247.9836 55.021729,246.53293 53.48575,243.6316 C 50.925733,246.14893 48.451069,247.55693 46.06175,247.8556 C 45.635072,247.89826 45.165739,247.9196 44.65375,247.9196 C 41.24041,247.9196 38.659079,246.5756 36.90975,243.8876 C 35.885748,242.3516 35.373749,240.58094 35.37375,238.5756 C 35.373749,234.26628 37.080414,230.08495 40.49375,226.0316 C 43.651074,222.19162 47.128404,219.90896 50.92575,219.1836 C 51.608399,219.05562 52.269732,218.99162 52.90975,218.9916 C 55.981728,218.99162 58.200393,220.29296 59.56575,222.8956 C 59.779058,223.27962 59.949724,223.68495 60.07775,224.1116 C 63.192388,221.25296 65.816385,219.61029 67.94975,219.1836 C 68.675049,219.05562 69.443048,218.99162 70.25375,218.9916 C 73.069711,218.99162 74.755043,220.03696 75.30975,222.1276 C 75.395042,222.51162 75.437709,222.91695 75.43775,223.3436 C 75.437709,226.75695 72.877711,229.65828 67.75775,232.0476 C 65.112386,233.28494 62.829721,234.01028 60.90975,234.2236 C 59.629724,234.30894 58.861725,234.69294 58.60575,235.3756 C 58.179059,236.74094 57.965726,238.25561 57.96575,239.9196 C 57.965726,242.30893 58.861725,243.9516 60.65375,244.8476 C 61.293723,245.14627 61.997722,245.2956 62.76575,245.2956 C 64.472386,245.2956 66.499051,244.48493 68.84575,242.8636 C 69.699048,242.26627 70.765713,241.47694 72.04575,240.4956 M 44.97375,246.6396 C 48.387069,246.6396 51.288399,243.14093 53.67775,236.1436 C 55.128396,231.62095 55.917728,227.80228 56.04575,224.6876 C 56.045728,222.55429 55.213729,221.21029 53.54975,220.6556 C 53.165731,220.52762 52.739065,220.46362 52.26975,220.4636 C 49.539068,220.46362 46.97907,222.59695 44.58975,226.8636 C 42.200409,231.08761 40.899077,235.46094 40.68575,239.9836 C 40.685743,240.2396 40.685743,240.51694 40.68575,240.8156 C 40.685743,243.80227 41.645742,245.65826 43.56575,246.3836 C 43.992407,246.55426 44.46174,246.6396 44.97375,246.6396 M 59.18175,233.4556 C 62.893721,232.26094 65.219052,231.36495 66.15775,230.7676 C 66.328384,230.63961 66.541718,230.49028 66.79775,230.3196 C 69.528381,227.97295 71.00038,225.56228 71.21375,223.0876 C 71.00038,221.55162 70.275047,220.71962 69.03775,220.5916 C 67.07505,220.59162 65.112386,221.95695 63.14975,224.6876 C 61.613722,226.86362 60.291057,229.78628 59.18175,233.4556"
     transform="translate(166.15335,64.484458)"
     style="font-size:56px;font-style:italic;font-variant:normal;font-weight:normal;font-stretch:normal;text-align:start;line-height:125%;writing-mode:lr-tb;text-anchor:start;fill:#000000;font-family:FreeSerif"
     id="flowRoot2223" />
  <path
     d="M -111.84203,256.3676 C -111.84203,256.62359 -111.99136,257.05025 -112.29003,257.6476 C -112.37536,257.77559 -112.41802,257.92492 -112.41803,258.0956 C -112.41802,258.69292 -111.99136,259.03425 -111.13803,259.1196 C -108.40736,259.11958 -106.33803,255.66359 -104.93003,248.7516 L -99.298033,221.8716 L -105.05803,221.8716 L -104.61003,219.8236 L -98.722033,219.8236 C -96.802043,213.67963 -94.796713,209.4343 -92.706033,207.0876 C -90.700713,204.91164 -88.354053,203.82364 -85.666033,203.8236 C -83.31939,203.82364 -81.655392,204.61297 -80.674033,206.1916 C -80.332727,206.7463 -80.16206,207.34364 -80.162033,207.9836 C -80.16206,209.13563 -80.716726,209.92497 -81.826033,210.3516 C -82.167391,210.47963 -82.508724,210.54363 -82.850033,210.5436 C -84.130056,210.54363 -84.898055,209.90363 -85.154033,208.6236 C -85.196722,208.4103 -85.218055,208.19697 -85.218033,207.9836 C -85.218055,207.72764 -85.026055,207.17297 -84.642033,206.3196 C -84.599389,206.19164 -84.578056,206.08497 -84.578033,205.9996 C -84.578056,205.48764 -85.047389,205.23164 -85.986033,205.2316 C -88.716723,205.23164 -90.892713,208.1543 -92.514033,213.9996 C -92.940713,215.66363 -93.367383,217.60496 -93.794033,219.8236 L -86.882033,219.8236 L -87.266033,221.8716 L -94.242033,221.8716 L -98.850033,242.3516 C -101.1967,252.89026 -104.80203,258.84225 -109.66603,260.2076 C -110.30603,260.37825 -110.96736,260.46358 -111.65003,260.4636 C -113.78336,260.46358 -115.29802,259.71692 -116.19403,258.2236 C -116.53535,257.71159 -116.70602,257.15692 -116.70603,256.5596 C -116.70602,255.27959 -116.17269,254.44759 -115.10603,254.0636 C -114.85002,253.97826 -114.59402,253.93559 -114.33803,253.9356 C -113.22869,253.93559 -112.46069,254.44759 -112.03403,255.4716 C -111.90603,255.77025 -111.84203,256.06892 -111.84203,256.3676 M -90.82525,256.3676 C -90.825245,256.62359 -90.974579,257.05025 -91.27325,257.6476 C -91.358578,257.77559 -91.401245,257.92492 -91.40125,258.0956 C -91.401245,258.69292 -90.974579,259.03425 -90.12125,259.1196 C -87.390582,259.11958 -85.321251,255.66359 -83.91325,248.7516 L -78.28125,221.8716 L -84.04125,221.8716 L -83.59325,219.8236 L -77.70525,219.8236 C -75.78526,213.67963 -73.779929,209.4343 -71.68925,207.0876 C -69.683933,204.91164 -67.337269,203.82364 -64.64925,203.8236 C -62.302607,203.82364 -60.638609,204.61297 -59.65725,206.1916 C -59.315944,206.7463 -59.145277,207.34364 -59.14525,207.9836 C -59.145277,209.13563 -59.699943,209.92497 -60.80925,210.3516 C -61.150608,210.47963 -61.491941,210.54363 -61.83325,210.5436 C -63.113273,210.54363 -63.881272,209.90363 -64.13725,208.6236 C -64.179939,208.4103 -64.201272,208.19697 -64.20125,207.9836 C -64.201272,207.72764 -64.009272,207.17297 -63.62525,206.3196 C -63.582606,206.19164 -63.561273,206.08497 -63.56125,205.9996 C -63.561273,205.48764 -64.030606,205.23164 -64.96925,205.2316 C -67.699935,205.23164 -69.875933,208.1543 -71.49725,213.9996 C -71.923931,215.66363 -72.350597,217.60496 -72.77725,219.8236 L -65.86525,219.8236 L -66.24925,221.8716 L -73.22525,221.8716 L -77.83325,242.3516 C -80.179923,252.89026 -83.785252,258.84225 -88.64925,260.2076 C -89.289247,260.37825 -89.95058,260.46358 -90.63325,260.4636 C -92.766577,260.46358 -94.281242,259.71692 -95.17725,258.2236 C -95.518574,257.71159 -95.689241,257.15692 -95.68925,256.5596 C -95.689241,255.27959 -95.155908,254.44759 -94.08925,254.0636 C -93.833242,253.97826 -93.577243,253.93559 -93.32125,253.9356 C -92.211911,253.93559 -91.443912,254.44759 -91.01725,255.4716 C -90.889245,255.77025 -90.825245,256.06892 -90.82525,256.3676 M 5.19675,230.7036 L -10.99525,243.8876 L -12.40325,241.7756 L -2.22725,232.5596 L -49.07525,232.5596 L -48.05125,228.9756 L -1.20325,228.9756 L -6.25925,219.7596 L -3.69925,217.6476 L 5.19675,230.7036 M 68.54675,207.9836 C 68.546707,209.09297 67.992041,209.8823 66.88275,210.3516 C 66.584042,210.47963 66.264042,210.54363 65.92275,210.5436 C 64.685377,210.54363 63.917378,209.96763 63.61875,208.8156 C 63.533378,208.6023 63.490712,208.36764 63.49075,208.1116 C 63.490712,207.72764 63.661378,207.17297 64.00275,206.4476 C 64.088044,206.27697 64.130711,206.12764 64.13075,205.9996 C 64.130711,205.48764 63.640045,205.23164 62.65875,205.2316 C 59.288049,205.23164 56.706719,210.09563 54.91475,219.8236 L 61.82675,219.8236 L 61.44275,221.8716 L 54.46675,221.8716 L 49.85875,242.3516 C 47.128061,254.42626 42.840066,260.46358 36.99475,260.4636 C 35.117407,260.46358 33.688075,259.86625 32.70675,258.6716 C 32.23741,258.07425 32.002743,257.41292 32.00275,256.6876 C 32.002743,255.40759 32.493409,254.55426 33.47475,254.1276 C 33.730741,253.99959 34.008075,253.93559 34.30675,253.9356 C 35.416073,253.93559 36.205406,254.40492 36.67475,255.3436 C 36.802738,255.64225 36.866738,255.96225 36.86675,256.3036 C 36.866738,256.51692 36.717405,256.94359 36.41875,257.5836 C 36.333406,257.75425 36.290739,257.92492 36.29075,258.0956 C 36.290739,258.69292 36.696072,259.03425 37.50675,259.1196 C 40.237402,259.11958 42.328066,255.66359 43.77875,248.7516 L 49.41075,221.8716 L 38.65875,221.8716 L 34.05075,242.3516 C 31.320077,254.42626 27.032082,260.46358 21.18675,260.4636 C 19.053423,260.46358 17.560091,259.75958 16.70675,258.3516 C 16.365426,257.79692 16.194759,257.17825 16.19475,256.4956 C 16.194759,255.30092 16.685425,254.51159 17.66675,254.1276 C 17.965424,253.99959 18.26409,253.93559 18.56275,253.9356 C 19.672089,253.93559 20.440088,254.42626 20.86675,255.4076 C 20.994754,255.70625 21.058754,256.00492 21.05875,256.3036 C 21.058754,256.51692 20.909421,256.96492 20.61075,257.6476 C 20.525421,257.81825 20.482755,257.96759 20.48275,258.0956 C 20.482755,258.65025 20.909421,258.92758 21.76275,258.9276 L 22.01875,258.9276 C 24.578751,258.92758 26.562749,255.53559 27.97075,248.7516 L 31.68275,230.5116 L 32.96275,223.8556 C 33.176075,223.13029 33.410742,222.46895 33.66675,221.8716 L 28.09875,221.8716 L 28.54675,219.8236 L 34.11475,219.8236 C 36.077406,213.0823 38.61607,208.5383 41.73075,206.1916 C 43.906731,204.48497 46.530729,203.63164 49.60275,203.6316 C 52.162723,203.63164 54.018721,204.33564 55.17075,205.7436 C 55.55472,206.21297 55.810719,206.72497 55.93875,207.2796 C 57.816051,204.97564 60.141382,203.82364 62.91475,203.8236 C 65.261377,203.82364 66.925375,204.52764 67.90675,205.9356 C 68.333374,206.53297 68.546707,207.21564 68.54675,207.9836 M 53.44275,210.7996 C 51.906723,210.79963 51.010724,210.1383 50.75475,208.8156 C 50.712058,208.6023 50.690725,208.38897 50.69075,208.1756 C 50.690725,207.5783 50.904058,207.02364 51.33075,206.5116 C 51.458724,206.38364 51.522724,206.2343 51.52275,206.0636 C 51.522724,205.38097 50.776058,205.03964 49.28275,205.0396 C 45.613396,205.03964 42.797399,207.8983 40.83475,213.6156 C 40.706735,213.99963 40.109402,216.06896 39.04275,219.8236 L 49.98675,219.8236 C 51.266724,215.72763 52.418723,212.71963 53.44275,210.7996"
     transform="translate(175.30873,143.79006)"
     style="font-size:56px;font-style:italic;font-variant:normal;font-weight:normal;font-stretch:normal;text-align:start;line-height:125%;writing-mode:lr-tb;text-anchor:start;fill:#000000;font-family:FreeSerif"
     id="flowRoot2231" />
  <path
     d="M 62.943674,480.49876 C 62.943674,480.75475 62.794344,481.18141 62.495674,481.77876 C 62.410344,481.90675 62.367684,482.05608 62.367674,482.22676 C 62.367684,482.82408 62.794344,483.16541 63.647674,483.25076 C 66.378344,483.25074 68.447674,479.79475 69.855674,472.88276 L 75.487674,446.00276 L 69.727674,446.00276 L 70.175674,443.95476 L 76.063674,443.95476 C 77.983669,437.81079 79.988999,433.56546 82.079679,431.21876 C 84.084999,429.0428 86.431659,427.9548 89.119679,427.95476 C 91.466322,427.9548 93.13032,428.74413 94.111679,430.32276 C 94.452985,430.87746 94.623652,431.4748 94.623679,432.11476 C 94.623652,433.26679 94.068986,434.05613 92.959679,434.48276 C 92.618321,434.61079 92.276988,434.67479 91.935679,434.67476 C 90.655656,434.67479 89.887657,434.03479 89.631679,432.75476 C 89.58899,432.54146 89.567657,432.32813 89.567679,432.11476 C 89.567657,431.8588 89.759657,431.30413 90.143679,430.45076 C 90.186323,430.3228 90.207656,430.21613 90.207679,430.13076 C 90.207656,429.6188 89.738323,429.3628 88.799679,429.36276 C 86.068989,429.3628 83.892999,432.28546 82.271679,438.13076 C 81.844999,439.79479 81.418329,441.73612 80.991679,443.95476 L 87.903679,443.95476 L 87.519679,446.00276 L 80.543679,446.00276 L 75.935674,466.48276 C 73.589004,477.02142 69.983674,482.97341 65.119674,484.33876 C 64.479674,484.50941 63.818344,484.59474 63.135674,484.59476 C 61.002344,484.59474 59.487684,483.84808 58.591674,482.35476 C 58.250354,481.84275 58.079684,481.28808 58.079674,480.69076 C 58.079684,479.41075 58.613014,478.57875 59.679674,478.19476 C 59.935684,478.10942 60.191684,478.06675 60.447674,478.06676 C 61.557014,478.06675 62.325014,478.57875 62.751674,479.60276 C 62.879674,479.90141 62.943674,480.20008 62.943674,480.49876 M 97.987479,469.04276 C 98.968802,469.04276 100.71813,467.37876 103.23548,464.05076 L 104.06748,464.75476 C 101.3368,468.76543 98.990136,471.09076 97.027479,471.73076 C 96.430138,471.94409 95.790139,472.05076 95.107479,472.05076 C 93.144808,472.05076 92.163476,470.83476 92.163479,468.40276 C 92.163476,467.16543 92.632809,464.8401 93.571479,461.42676 L 96.643479,450.09876 C 97.027471,448.81878 97.219471,447.88011 97.219479,447.28276 C 97.219471,446.55745 96.835471,446.10945 96.067479,445.93876 C 95.555472,445.85345 94.595473,445.78945 93.187479,445.74676 L 93.187479,444.72276 C 95.15014,444.55212 98.563469,444.01878 103.42748,443.12276 L 103.61948,443.25076 L 97.603479,465.26676 C 97.176804,466.80276 96.963471,467.74143 96.963479,468.08276 C 96.963471,468.50943 97.219471,468.80809 97.731479,468.97876 C 97.816804,469.02143 97.902137,469.04276 97.987479,469.04276 M 102.72348,429.49076 C 104.00346,429.4908 104.96346,430.15213 105.60348,431.47476 C 105.8168,431.9868 105.92346,432.4988 105.92348,433.01076 C 105.92346,434.37613 105.3048,435.35746 104.06748,435.95476 C 103.68346,436.16812 103.2568,436.27479 102.78748,436.27476 C 101.2088,436.27479 100.22747,435.50679 99.843479,433.97076 C 99.758135,433.62946 99.715468,433.26679 99.715479,432.88276 C 99.715468,431.30413 100.35547,430.23746 101.63548,429.68276 C 101.9768,429.5548 102.33947,429.4908 102.72348,429.49076 M 180.50548,454.83476 L 164.31348,468.01876 L 162.90548,465.90676 L 173.08148,456.69076 L 126.23348,456.69076 L 127.25748,453.10676 L 174.10548,453.10676 L 169.04948,443.89076 L 171.60948,441.77876 L 180.50548,454.83476 M 196.36748,480.49876 C 196.36748,480.71208 196.21815,481.11741 195.91948,481.71476 C 195.83415,481.88541 195.79148,482.05608 195.79148,482.22676 C 195.79148,482.78141 196.21815,483.05874 197.07148,483.05876 C 199.50348,483.05874 201.42348,480.28541 202.83148,474.73876 C 202.95948,474.22675 203.57814,471.26142 204.68748,465.84276 C 207.16214,453.64011 208.59147,447.02678 208.97548,446.00276 L 203.40748,446.00276 L 203.85548,443.95476 L 209.42348,443.95476 C 211.38613,437.59746 213.6688,433.24546 216.27148,430.89876 C 218.57546,428.80813 221.39146,427.7628 224.71948,427.76276 C 227.70612,427.7628 229.73278,428.63747 230.79948,430.38676 C 231.14078,430.94146 231.31145,431.56013 231.31148,432.24276 C 231.31145,433.65079 230.67145,434.52546 229.39148,434.86676 C 229.13545,434.90946 228.87945,434.93079 228.62348,434.93076 C 227.30079,434.93079 226.46879,434.31213 226.12748,433.07476 C 226.04212,432.81879 225.99945,432.54146 225.99948,432.24276 C 225.99945,431.7308 226.23412,431.1548 226.70348,430.51476 C 226.78879,430.3868 226.83145,430.28013 226.83148,430.19476 C 226.83145,429.51213 226.10612,429.1708 224.65548,429.17076 C 221.83946,429.1708 219.62079,430.6428 217.99948,433.58676 C 217.0608,435.33613 215.8448,438.79212 214.35148,443.95476 L 223.95148,443.95476 C 225.01812,443.95478 226.93812,443.80545 229.71148,443.50676 C 229.92478,443.46412 230.11678,443.44278 230.28748,443.44276 L 230.60748,443.63476 C 230.60745,444.23212 229.17812,449.62944 226.31948,459.82676 C 224.91145,464.81876 224.20745,467.65609 224.20748,468.33876 C 224.20745,468.68009 224.44212,468.89343 224.91148,468.97876 C 225.76479,468.97876 227.42878,467.50676 229.90348,464.56276 L 230.92748,465.13876 C 228.06878,469.06409 225.65812,471.26142 223.69548,471.73076 C 223.31146,471.81609 222.90612,471.85876 222.47948,471.85876 C 220.90079,471.85876 219.91946,471.13342 219.53548,469.68276 C 219.45013,469.38409 219.40746,469.06409 219.40748,468.72276 C 219.40746,467.44276 220.90079,461.42677 223.88748,450.67476 C 224.57012,448.24278 224.91145,446.89878 224.91148,446.64276 C 224.91145,446.21611 224.57012,446.00278 223.88748,446.00276 L 213.96748,446.00276 L 209.35948,466.48276 C 206.75681,477.96008 202.72481,483.97608 197.26348,484.53076 C 197.00748,484.57341 196.75148,484.59474 196.49548,484.59476 C 194.23415,484.59474 192.69815,483.80541 191.88748,482.22676 C 191.63149,481.75741 191.50349,481.22408 191.50348,480.62676 C 191.50349,479.38941 192.03682,478.57875 193.10348,478.19476 C 193.35949,478.10942 193.61549,478.06675 193.87148,478.06676 C 194.98082,478.06675 195.74882,478.57875 196.17548,479.60276 C 196.30348,479.90141 196.36748,480.20008 196.36748,480.49876"
     style="font-size:56px;font-style:italic;font-variant:normal;font-weight:normal;font-stretch:normal;text-align:start;line-height:125%;writing-mode:lr-tb;text-anchor:start;fill:#000000;font-family:FreeSerif"
     id="flowRoot2239" />
  <path
     d="M 360.0625,30.65625 C 359.67849,30.65629 359.31006,30.715789 358.96875,30.84375 C 357.68874,31.39845 357.0625,32.483868 357.0625,34.0625 C 357.06249,34.44653 357.10217,34.783701 357.1875,35.125 C 357.57149,36.66103 358.54633,37.43753 360.125,37.4375 C 360.59432,37.43753 361.02223,37.33836 361.40625,37.125 C 362.64357,36.5277 363.28123,35.55287 363.28125,34.1875 C 363.28123,33.67554 363.15082,33.168289 362.9375,32.65625 C 362.29748,31.33362 361.3425,30.65629 360.0625,30.65625 z M 379.96875,30.65625 C 379.6274,30.65629 379.27883,30.715789 378.9375,30.84375 C 377.61482,31.31312 376.96873,32.367291 376.96875,34.03125 C 376.96874,34.41528 377.00841,34.783699 377.09375,35.125 C 377.47774,36.66103 378.45257,37.437529 380.03125,37.4375 C 380.50057,37.43753 380.92848,37.338358 381.3125,37.125 C 382.54982,36.5277 383.15624,35.521618 383.15625,34.15625 C 383.15623,33.64429 383.05706,33.137042 382.84375,32.625 C 382.20373,31.30237 381.24872,30.656291 379.96875,30.65625 z M 490.625,30.65625 C 490.19832,30.65629 489.81008,30.73562 489.46875,30.90625 C 488.2314,31.41829 487.62499,32.503699 487.625,34.125 C 487.62499,34.50903 487.66467,34.846202 487.75,35.1875 C 488.17666,36.68087 489.1515,37.43753 490.6875,37.4375 C 491.15682,37.43753 491.60455,37.33836 492.03125,37.125 C 493.2259,36.5277 493.81248,35.55287 493.8125,34.1875 C 493.81248,33.67554 493.71332,33.18812 493.5,32.71875 C 492.90265,31.35345 491.94766,30.65629 490.625,30.65625 z M 507.40625,30.65625 C 506.97955,30.65629 506.59131,30.73562 506.25,30.90625 C 505.01264,31.41829 504.37497,32.503699 504.375,34.125 C 504.37497,34.50903 504.41464,34.846202 504.5,35.1875 C 504.92664,36.68087 505.93273,37.43753 507.46875,37.4375 C 507.93805,37.43753 508.38581,37.33836 508.8125,37.125 C 510.00713,36.5277 510.5937,35.55287 510.59375,34.1875 C 510.59372,33.67554 510.49455,33.18812 510.28125,32.71875 C 509.68388,31.35345 508.72889,30.65629 507.40625,30.65625 z M 448,42.9375 L 445.4375,45.0625 L 450.5,54.28125 L 403.65625,54.28125 L 402.625,57.84375 L 449.46875,57.84375 L 439.3125,67.0625 L 440.71875,69.1875 L 456.90625,56 L 448,42.9375 z M 360.78125,44.28125 C 355.91724,45.17727 352.4939,45.704358 350.53125,45.875 L 350.53125,46.90625 C 351.93924,46.94894 352.89423,47.008439 353.40625,47.09375 C 354.17424,47.26444 354.5625,47.712191 354.5625,48.4375 C 354.56249,49.03485 354.38399,50.001269 354,51.28125 L 350.90625,62.59375 C 349.96758,66.00709 349.5,68.325172 349.5,69.5625 C 349.5,71.9945 350.47483,73.218749 352.4375,73.21875 C 353.12016,73.21875 353.77765,73.119579 354.375,72.90625 C 356.33766,72.26625 358.67556,69.948167 361.40625,65.9375 L 360.5625,65.21875 C 358.04515,68.54675 356.32507,70.218752 355.34375,70.21875 C 355.25841,70.21875 355.14783,70.198918 355.0625,70.15625 C 354.55049,69.98558 354.31248,69.676671 354.3125,69.25 C 354.31249,68.90867 354.51083,67.973503 354.9375,66.4375 L 360.96875,44.40625 L 360.78125,44.28125 z M 381.0625,44.28125 C 375.43049,45.30527 371.80882,45.83236 370.1875,45.875 L 370.1875,46.90625 L 372.46875,46.90625 C 374.09007,46.90627 374.90623,47.583601 374.90625,48.90625 C 374.90624,49.6316 374.55767,51.312018 373.875,54 L 369.28125,72.6875 C 368.38525,76.22883 367.5889,78.83599 366.90625,80.5 C 365.83958,83.01732 364.55582,84.281229 363.0625,84.28125 C 362.2945,84.28123 361.90625,84.063071 361.90625,83.59375 C 361.90625,83.42307 361.99701,83.233152 362.125,83.0625 C 362.55167,82.42249 362.75,81.915238 362.75,81.53125 C 362.75,81.27524 362.71033,81.005993 362.625,80.75 C 362.241,79.68332 361.40499,79.156242 360.125,79.15625 C 359.82634,79.15624 359.51741,79.195913 359.21875,79.28125 C 358.10942,79.70791 357.5625,80.563738 357.5625,81.84375 C 357.56251,82.3984 357.68149,82.92549 357.9375,83.4375 C 358.74817,84.97348 360.321,85.749979 362.625,85.75 C 362.92367,85.74998 363.21274,85.730152 363.46875,85.6875 C 368.50341,85.26082 372.20441,80.27607 374.59375,70.71875 L 381.25,44.40625 L 381.0625,44.28125 z M 491.3125,44.28125 C 488.24049,45.04927 485.04674,45.64727 481.71875,46.03125 L 481.71875,46.90625 L 482.875,46.90625 C 484.66699,46.90627 485.5625,47.543941 485.5625,48.78125 C 485.56249,50.18927 484.89658,53.11377 483.53125,57.59375 C 481.65391,63.73776 480.71873,67.68817 480.71875,69.4375 C 480.88941,71.52816 482.04274,72.792079 484.21875,73.21875 C 487.54674,73.21875 491.279,70.16383 495.375,64.0625 C 495.54565,63.80651 497.06741,61.278671 499.96875,56.5 L 495.9375,72.71875 C 495.89481,72.84675 495.85513,73.045081 495.8125,73.34375 C 494.10582,80.63974 492.10508,84.281231 489.84375,84.28125 C 488.99041,84.28123 488.5625,84.063073 488.5625,83.59375 C 488.56249,83.42307 488.65323,83.233146 488.78125,83.0625 C 489.2079,82.37982 489.40625,81.852742 489.40625,81.46875 C 489.40624,81.17007 489.34673,80.912243 489.21875,80.65625 C 488.79207,79.67491 487.99575,79.156243 486.84375,79.15625 C 486.50241,79.15624 486.15382,79.266819 485.8125,79.4375 C 484.74583,79.90682 484.21874,80.632241 484.21875,81.65625 C 484.21874,82.25357 484.3179,82.811903 484.53125,83.28125 C 485.25657,84.94523 486.8294,85.74998 489.21875,85.75 C 490.7974,85.74998 492.23982,85.392981 493.5625,84.625 C 496.80515,82.70499 499.37266,78.057411 501.25,70.71875 L 507.90625,44.40625 L 507.71875,44.28125 C 502.30006,45.26261 498.67839,45.789688 496.84375,45.875 L 496.84375,46.90625 L 496.90625,46.90625 L 498.4375,46.84375 C 500.57081,46.84377 501.62499,47.331189 501.625,48.3125 C 501.62498,48.73919 501.5258,49.337188 501.3125,50.0625 C 500.33114,53.39052 498.19157,57.440089 494.90625,62.21875 C 491.40757,67.29608 488.78056,69.812497 487.03125,69.8125 C 486.09257,69.8125 485.625,69.285423 485.625,68.21875 C 485.62499,68.04808 485.72416,67.501167 485.9375,66.5625 L 491.53125,44.40625 L 491.3125,44.28125 z "
     style="font-size:56px;font-style:italic;font-variant:normal;font-weight:normal;font-stretch:normal;text-align:start;line-height:125%;writing-mode:lr-tb;text-anchor:start;fill:#000000;font-family:FreeSerif"
     id="flowRoot2247" />
  <path
     d="M -95.477606,247.9196 C -96.202946,247.9196 -97.696276,247.62093 -99.957606,247.0236 C -100.81095,246.81026 -101.53628,246.7036 -102.13361,246.7036 C -102.73095,246.7036 -103.24295,247.1516 -103.66961,248.0476 L -104.69361,248.0476 L -103.41361,237.8716 L -102.38961,237.8716 C -101.53628,242.9916 -99.808276,245.85026 -97.205606,246.4476 C -96.778946,246.53293 -96.330946,246.5756 -95.861606,246.5756 C -93.728286,246.5756 -92.277616,245.65826 -91.509606,243.8236 C -91.253616,243.14093 -91.125616,242.4156 -91.125606,241.6476 C -91.125616,239.8556 -92.170956,237.61561 -94.261606,234.9276 C -96.266946,232.28228 -97.504276,230.42628 -97.973606,229.3596 C -98.485616,228.25028 -98.741616,227.14095 -98.741606,226.0316 C -98.741616,223.00229 -97.418946,220.91162 -94.773606,219.7596 C -93.664286,219.24762 -92.405616,218.99162 -90.997606,218.9916 C -90.272286,218.99162 -88.778956,219.26896 -86.517606,219.8236 C -85.920296,219.99429 -85.45096,220.07962 -85.109606,220.0796 C -84.256294,220.07962 -83.616295,219.69562 -83.189606,218.9276 L -82.293606,218.9276 L -83.573606,227.8236 L -84.597606,227.8236 C -85.237626,222.91695 -87.200296,220.46362 -90.485606,220.4636 C -92.490956,220.46362 -93.664286,221.33829 -94.005606,223.0876 C -94.048286,223.34362 -94.069616,223.62095 -94.069606,223.9196 C -94.069616,225.37028 -93.045616,227.43962 -90.997606,230.1276 C -88.778956,233.07161 -87.413626,235.20494 -86.901606,236.5276 C -86.474956,237.59427 -86.261626,238.61827 -86.261606,239.5996 C -86.261626,242.71427 -87.605626,245.06093 -90.293606,246.6396 C -91.786956,247.49293 -93.514956,247.9196 -95.477606,247.9196 M -60.21225,219.8236 L -60.53225,221.8716 L -65.90825,221.8716 L -71.54025,243.1836 C -71.582924,243.3116 -71.604258,243.41827 -71.60425,243.5036 C -71.604258,244.35693 -71.284258,244.7836 -70.64425,244.7836 C -69.918926,244.7836 -68.78826,243.84493 -67.25225,241.9676 C -66.782929,241.41294 -66.185596,240.66627 -65.46025,239.7276 L -64.62825,240.1756 C -67.358928,244.18627 -69.55626,246.59693 -71.22025,247.4076 C -71.988257,247.74893 -72.820256,247.9196 -73.71625,247.9196 C -75.252254,247.9196 -76.233586,247.36493 -76.66025,246.2556 C -76.745586,245.9996 -76.788252,245.7436 -76.78825,245.4876 C -76.788252,245.14627 -76.297586,243.14093 -75.31625,239.4716 L -70.70825,221.8716 L -75.44425,221.8716 C -75.48692,221.74362 -75.508254,221.61562 -75.50825,221.4876 C -75.508254,220.97562 -75.060254,220.52762 -74.16425,220.1436 C -71.860257,219.07696 -70.089592,218.03163 -68.85225,217.0076 C -67.529595,215.89829 -66.228263,214.51163 -64.94825,212.8476 C -64.649598,212.46363 -64.329598,212.27163 -63.98825,212.2716 C -63.646932,212.27163 -63.476266,212.48496 -63.47625,212.9116 C -63.476266,213.03963 -63.497599,213.1463 -63.54025,213.2316 L -65.33225,219.8236 L -60.21225,219.8236 M 12.32175,230.7036 L -3.87025,243.8876 L -5.27825,241.7756 L 4.89775,232.5596 L -41.95025,232.5596 L -40.92625,228.9756 L 5.92175,228.9756 L 0.86575,219.7596 L 3.42575,217.6476 L 12.32175,230.7036 M 68.75975,215.7276 L 68.11975,215.7276 C 65.858383,215.72763 63.362386,214.40496 60.63175,211.7596 L 56.79175,208.0476 C 54.957061,206.4263 53.229062,205.61564 51.60775,205.6156 C 49.133067,205.61564 47.170402,206.66097 45.71975,208.7516 C 44.909071,209.9463 44.503738,211.26897 44.50375,212.7196 C 44.503738,215.27963 45.783737,217.30629 48.34375,218.7996 C 49.837066,219.65296 51.415731,220.07962 53.07975,220.0796 C 53.847728,220.07962 54.445061,219.69562 54.87175,218.9276 L 55.76775,218.9276 L 54.48775,227.8236 L 53.46375,227.8236 C 53.079729,223.68495 51.543731,221.29562 48.85575,220.6556 C 48.429067,220.52762 47.959734,220.46362 47.44775,220.4636 C 45.35707,220.84762 44.205071,222.08495 43.99175,224.1756 C 43.991738,225.45562 45.037071,227.48228 47.12775,230.2556 C 49.4744,233.32761 50.882398,235.56761 51.35175,236.9756 C 51.650397,237.82894 51.799731,238.61827 51.79975,239.3436 C 51.799731,243.14093 50.135732,245.72226 46.80775,247.0876 C 45.442404,247.64226 43.927738,247.9196 42.26375,247.9196 C 41.709074,247.9196 40.343742,247.62093 38.16775,247.0236 C 37.314412,246.81026 36.567746,246.7036 35.92775,246.7036 C 35.330414,246.7036 34.818414,247.1516 34.39175,248.0476 L 33.36775,248.0476 L 34.64775,237.8716 L 35.67175,237.8716 C 36.567746,243.67427 38.78641,246.5756 42.32775,246.5756 C 44.546404,246.5756 45.975736,245.50893 46.61575,243.3756 C 46.829069,242.7356 46.935735,242.07427 46.93575,241.3916 C 46.935735,240.02627 45.847736,237.82894 43.67175,234.7996 C 41.367741,231.59961 40.023742,229.29561 39.63975,227.8876 C 39.42641,227.24762 39.319743,226.65028 39.31975,226.0956 C 39.319743,223.02362 40.642408,220.91162 43.28775,219.7596 C 44.141072,219.37562 45.079737,219.14096 46.10375,219.0556 C 44.183738,217.34896 43.223739,215.23696 43.22375,212.7196 C 43.223739,209.86097 44.375738,207.59964 46.67975,205.9356 C 48.173068,204.86897 49.815733,204.33564 51.60775,204.3356 C 53.869062,204.33564 56.301059,205.5943 58.90375,208.1116 L 62.80775,211.8876 C 64.770384,213.55163 66.669049,214.38363 68.50375,214.3836 C 69.527713,214.38363 70.466379,213.89296 71.31975,212.9116 C 71.703711,212.48496 72.002377,212.27163 72.21575,212.2716 L 72.27975,212.2716 C 72.621043,212.1863 72.79171,212.33563 72.79175,212.7196 C 72.79171,213.23163 72.173044,215.59963 70.93575,219.8236 L 76.05575,219.8236 L 75.73575,221.8716 L 70.35975,221.8716 L 64.79175,242.8636 C 64.706384,243.33293 64.663718,243.61027 64.66375,243.6956 C 64.663718,244.42093 65.005051,244.7836 65.68775,244.7836 C 66.541049,244.7836 68.247714,243.09827 70.80775,239.7276 L 71.63975,240.1756 C 69.463713,243.46093 67.650381,245.6156 66.19975,246.6396 C 65.005051,247.49293 63.789052,247.9196 62.55175,247.9196 C 60.973055,247.9196 59.991722,247.32226 59.60775,246.1276 C 59.522389,245.91426 59.479723,245.65826 59.47975,245.3596 C 59.479723,245.01827 59.927722,243.22627 60.82375,239.9836 C 60.866388,239.77027 60.909055,239.5996 60.95175,239.4716 L 65.55975,221.8716 L 60.82375,221.8716 C 60.823722,221.82896 60.802388,221.70096 60.75975,221.4876 C 60.887721,221.01829 61.442388,220.52762 62.42375,220.0156 C 64.855717,218.90629 66.967715,217.47696 68.75975,215.7276"
     transform="translate(444.52589,-96.995971)"
     style="font-size:56px;font-style:italic;font-variant:normal;font-weight:normal;font-stretch:normal;text-align:start;line-height:125%;writing-mode:lr-tb;text-anchor:start;fill:#000000;font-family:FreeSerif"
     id="flowRoot2255" />
  <path
     d="M 501.78125,186.59375 C 499.43456,186.59379 497.36591,187.23147 495.53125,188.46875 C 493.91524,189.55677 492.47634,191.23911 491.1875,193.53125 C 491.18074,193.54327 491.163,193.55046 491.15625,193.5625 C 489.71012,195.92875 488.23868,199.09868 487,203.0625 L 481.125,203.0625 L 480.65625,205.09375 L 486.4375,205.09375 L 480.8125,231.96875 C 479.4045,238.88074 477.32441,242.34373 474.59375,242.34375 C 473.74043,242.2584 473.31253,241.90982 473.3125,241.3125 C 473.31251,241.14182 473.35221,241.00299 473.4375,240.875 C 473.73618,240.27765 473.87498,239.84974 473.875,239.59375 C 473.87501,239.29507 473.8155,238.98615 473.6875,238.6875 C 473.26084,237.66349 472.51559,237.15624 471.40625,237.15625 C 471.15026,237.15624 470.88102,237.19591 470.625,237.28125 C 469.55835,237.66524 469.03124,238.50124 469.03125,239.78125 C 469.03126,240.37857 469.18995,240.92549 469.53125,241.4375 C 470.42726,242.93082 471.96045,243.68748 474.09375,243.6875 C 474.77642,243.68748 475.42252,243.60815 476.0625,243.4375 C 480.9265,242.07215 484.52836,236.13241 486.875,225.59375 L 491.9375,203.0625 C 492.10272,202.31901 492.24367,201.64748 492.40625,200.96875 C 494.84617,192.3689 498.02384,188.06254 501.59375,188.0625 C 504.06839,188.19054 505.39179,189.88237 505.5625,193.125 C 505.61496,195.80307 504.95612,198.39427 504.3125,200.96875 C 503.17517,201.75831 501.72786,202.56061 499.96875,203.375 C 499.07275,203.75902 498.62498,204.20677 498.625,204.71875 C 498.625,204.84677 498.64484,204.96578 498.6875,205.09375 L 503.40625,205.09375 L 498.8125,222.6875 C 497.83116,226.35683 497.34376,228.37742 497.34375,228.71875 C 497.34375,228.97475 497.38343,229.21275 497.46875,229.46875 C 497.89541,230.57808 498.87024,231.15625 500.40625,231.15625 C 501.30224,231.15625 502.13825,230.96633 502.90625,230.625 C 504.57024,229.81433 506.76929,227.41692 509.5,223.40625 L 508.65625,222.96875 C 507.9309,223.90742 507.34432,224.63284 506.875,225.1875 C 505.33899,227.06483 504.19409,228 503.46875,228 C 502.82874,228 502.53123,227.57208 502.53125,226.71875 C 502.53124,226.63342 502.5511,226.53425 502.59375,226.40625 L 508.21875,205.09375 L 513.59375,205.09375 L 513.90625,203.0625 L 508.78125,203.0625 C 510.1945,198.3254 511.64412,195.20931 509.53125,190.5625 C 507.95255,187.91721 505.36521,186.59379 501.78125,186.59375 z M 366.4375,186.71875 C 363.74948,186.71879 361.41158,187.79279 359.40625,189.96875 C 357.31557,192.31545 355.29499,196.57478 353.375,202.71875 L 347.5,202.71875 L 347.0625,204.75 L 352.8125,204.75 L 347.1875,231.625 C 345.7795,238.53699 343.69941,241.99999 340.96875,242 C 340.11542,241.91465 339.68752,241.56606 339.6875,240.96875 C 339.68751,240.79807 339.72716,240.65925 339.8125,240.53125 C 340.11117,239.9339 340.28125,239.506 340.28125,239.25 C 340.28125,238.95132 340.19051,238.6424 340.0625,238.34375 C 339.63584,237.31974 338.89059,236.81249 337.78125,236.8125 C 337.52526,236.81249 337.25601,236.85217 337,236.9375 C 335.93334,237.32149 335.40627,238.15749 335.40625,239.4375 C 335.40626,240.03482 335.56492,240.58174 335.90625,241.09375 C 336.80226,242.58707 338.33543,243.34373 340.46875,243.34375 C 341.15142,243.34373 341.7975,243.26439 342.4375,243.09375 C 347.3015,241.7284 350.90332,235.78866 353.25,225.25 L 358.3125,202.71875 C 359.25115,198.49478 360.14665,195.28962 361,193.15625 C 362.36532,189.78562 364.07699,188.12505 366.125,188.125 C 367.06364,188.12504 367.53121,188.36304 367.53125,188.875 C 367.53123,188.96037 367.51141,189.05953 367.46875,189.1875 C 367.08473,190.04087 366.90623,190.61903 366.90625,190.875 C 366.90623,191.08837 366.92607,191.28669 366.96875,191.5 C 367.22473,192.78003 367.96997,193.43753 369.25,193.4375 C 369.59131,193.43753 369.9399,193.37803 370.28125,193.25 C 371.39056,192.82337 371.93748,192.02702 371.9375,190.875 C 371.93747,190.23504 371.7788,189.6172 371.4375,189.0625 C 370.45614,187.48387 368.78414,186.71879 366.4375,186.71875 z M 377.71875,195.15625 C 377.3774,195.15628 377.07991,195.33477 376.78125,195.71875 C 375.50124,197.38278 374.19766,198.79695 372.875,199.90625 C 371.63766,200.93028 369.86651,201.96461 367.5625,203.03125 C 366.6665,203.41527 366.21876,203.86301 366.21875,204.375 C 366.21875,204.50302 366.23859,204.62203 366.28125,204.75 L 371,204.75 L 366.40625,222.34375 C 365.42491,226.01308 364.93751,228.03366 364.9375,228.375 C 364.9375,228.631 364.97715,228.869 365.0625,229.125 C 365.48916,230.23433 366.46398,230.8125 368,230.8125 C 368.89599,230.8125 369.73201,230.62258 370.5,230.28125 C 372.16399,229.47058 374.36308,227.07318 377.09375,223.0625 L 376.25,222.625 C 375.52465,223.56367 374.93807,224.28909 374.46875,224.84375 C 372.93274,226.72108 371.78782,227.65625 371.0625,227.65625 C 370.42249,227.65625 370.12498,227.22833 370.125,226.375 C 370.12499,226.28967 370.14482,226.1905 370.1875,226.0625 L 375.8125,204.75 L 381.1875,204.75 L 381.5,202.71875 L 376.375,202.71875 L 378.1875,196.125 C 378.23015,196.0397 378.24998,195.90928 378.25,195.78125 C 378.24998,195.35461 378.06006,195.15628 377.71875,195.15625 z M 445.15625,200.53125 L 442.59375,202.65625 L 447.625,211.84375 L 400.78125,211.84375 L 399.78125,215.4375 L 446.625,215.4375 L 436.4375,224.65625 L 437.84375,226.78125 L 454.03125,213.59375 L 445.15625,200.53125 z "
     style="font-size:56px;font-style:italic;font-variant:normal;font-weight:normal;font-stretch:normal;text-align:start;line-height:125%;writing-mode:lr-tb;text-anchor:start;fill:#000000;font-family:FreeSerif"
     id="flowRoot2279" />
  <path
     d="M -97.11925,240.2396 L -96.35125,241.0076 C -99.80727,244.93293 -103.64727,247.19426 -107.87125,247.7916 C -108.46859,247.87693 -109.04459,247.9196 -109.59925,247.9196 C -112.92726,247.9196 -115.33792,246.59693 -116.83125,243.9516 C -117.64192,242.5436 -118.04725,240.9436 -118.04725,239.1516 C -118.04725,234.71428 -116.25525,230.44761 -112.67125,226.3516 C -109.21526,222.38362 -105.3966,220.01562 -101.21525,219.2476 C -100.36194,219.07696 -99.55127,218.99162 -98.78325,218.9916 C -96.052607,218.99162 -94.409942,219.99429 -93.85525,221.9996 C -93.727276,222.42629 -93.663276,222.87429 -93.66325,223.3436 C -93.663276,226.54362 -95.647274,229.31695 -99.61525,231.6636 C -102.5166,233.37028 -105.99393,234.50094 -110.04725,235.0556 L -111.83925,235.3116 C -112.26592,237.01827 -112.47926,238.34094 -112.47925,239.2796 C -112.47926,241.88227 -111.36993,243.6316 -109.15125,244.5276 C -108.3406,244.86893 -107.4446,245.0396 -106.46325,245.0396 C -104.54327,245.0396 -102.43127,244.2076 -100.12725,242.5436 C -99.273937,241.94627 -98.271272,241.17827 -97.11925,240.2396 M -111.39125,233.9036 C -103.83927,232.06894 -99.444604,229.08228 -98.20725,224.9436 C -97.993939,224.26095 -97.887272,223.59962 -97.88725,222.9596 C -97.887272,221.63696 -98.441938,220.82629 -99.55125,220.5276 C -99.721937,220.48496 -99.913937,220.46362 -100.12725,220.4636 C -102.1326,220.46362 -104.32993,221.95695 -106.71925,224.9436 C -108.25526,226.82095 -109.44993,228.86895 -110.30325,231.0876 L -111.39125,233.9036 M -73.735687,219.8236 L -74.055688,221.8716 L -79.431687,221.8716 L -85.063688,243.1836 C -85.106362,243.3116 -85.127695,243.41827 -85.127687,243.5036 C -85.127695,244.35693 -84.807695,244.7836 -84.167687,244.7836 C -83.442363,244.7836 -82.311698,243.84493 -80.775688,241.9676 C -80.306367,241.41294 -79.709034,240.66627 -78.983688,239.7276 L -78.151687,240.1756 C -80.882366,244.18627 -83.079697,246.59693 -84.743687,247.4076 C -85.511695,247.74893 -86.343694,247.9196 -87.239688,247.9196 C -88.775691,247.9196 -89.757024,247.36493 -90.183688,246.2556 C -90.269023,245.9996 -90.31169,245.7436 -90.311688,245.4876 C -90.31169,245.14627 -89.821024,243.14093 -88.839687,239.4716 L -84.231687,221.8716 L -88.967687,221.8716 C -89.010358,221.74362 -89.031691,221.61562 -89.031688,221.4876 C -89.031691,220.97562 -88.583692,220.52762 -87.687687,220.1436 C -85.383695,219.07696 -83.61303,218.03163 -82.375687,217.0076 C -81.053032,215.89829 -79.7517,214.51163 -78.471688,212.8476 C -78.173035,212.46363 -77.853036,212.27163 -77.511687,212.2716 C -77.17037,212.27163 -76.999703,212.48496 -76.999687,212.9116 C -76.999703,213.03963 -77.021036,213.1463 -77.063688,213.2316 L -78.855688,219.8236 L -73.735687,219.8236 M -1.2016875,230.7036 L -17.393687,243.8876 L -18.801687,241.7756 L -8.6256875,232.5596 L -55.473687,232.5596 L -54.449687,228.9756 L -7.6016875,228.9756 L -12.657688,219.7596 L -10.097687,217.6476 L -1.2016875,230.7036 M 56.324312,210.6076 C 56.324275,214.40496 52.654945,218.13829 45.316313,221.8076 C 46.937618,228.71961 48.793616,233.77561 50.884313,236.9756 C 53.870944,233.39161 55.513609,230.83161 55.812312,229.2956 C 55.897609,228.91161 55.940275,228.50628 55.940312,228.0796 C 55.940275,227.14095 55.449609,226.54362 54.468313,226.2876 C 54.041611,226.15962 53.465611,226.07428 52.740313,226.0316 L 52.740313,224.8156 L 64.580312,224.8156 L 64.580312,225.9036 C 62.873602,226.07428 61.657603,226.50095 60.932313,227.1836 C 60.377604,227.69562 58.798939,229.80761 56.196312,233.5196 C 54.788277,235.52494 53.422945,237.42361 52.100313,239.2156 C 54.190944,242.71427 56.366942,244.67693 58.628312,245.1036 C 59.054939,245.18893 59.481605,245.2316 59.908313,245.2316 C 61.18827,245.2316 62.681602,244.5916 64.388312,243.3116 L 65.092312,244.0156 C 62.788269,246.66093 60.377604,248.09026 57.860312,248.3036 C 57.51894,248.34626 57.177607,248.3676 56.836312,248.3676 C 53.977611,248.3676 51.39628,247.0876 49.092313,244.5276 C 48.750949,244.1436 48.409616,243.73827 48.068313,243.3116 C 43.758954,246.08493 40.601624,247.68493 38.596312,248.1116 C 37.657627,248.28226 36.569628,248.3676 35.332313,248.3676 C 30.468301,248.3676 27.054971,246.7676 25.092312,243.5676 C 24.153641,242.07427 23.684308,240.3036 23.684313,238.2556 C 23.684308,233.00761 27.673637,228.54895 35.652313,224.8796 C 34.96963,225.22095 36.420295,224.60229 40.004312,223.0236 L 39.556313,217.7756 C 39.556292,212.86896 40.985624,209.19963 43.844313,206.7676 C 45.550952,205.31697 47.53495,204.59164 49.796312,204.5916 C 52.356279,204.59164 54.23361,205.57297 55.428313,207.5356 C 56.025609,208.4743 56.324275,209.4983 56.324312,210.6076 M 40.132312,225.1356 C 35.524296,226.88495 32.388299,229.42361 30.724312,232.7516 C 30.041635,234.07428 29.700302,235.39694 29.700313,236.7196 C 29.700302,239.70627 30.873634,242.01027 33.220312,243.6316 C 34.58563,244.57027 36.142962,245.0396 37.892313,245.0396 C 41.006957,245.0396 43.993621,243.84493 46.852312,241.4556 C 44.676287,238.72494 42.436289,233.28494 40.132312,225.1356 M 45.060313,219.8236 C 48.345616,217.73296 50.393614,215.85563 51.204313,214.1916 C 51.673613,213.16763 51.908279,211.8663 51.908313,210.2876 C 51.566946,208.0263 50.606947,206.8103 49.028312,206.6396 C 46.169618,206.63964 44.740287,209.41297 44.740313,214.9596 C 44.740287,216.58096 44.846953,218.20229 45.060313,219.8236"
     transform="translate(455.70023,63.853594)"
     style="font-size:56px;font-style:italic;font-variant:normal;font-weight:normal;font-stretch:normal;text-align:start;line-height:125%;writing-mode:lr-tb;text-anchor:start;fill:#000000;font-family:FreeSerif"
     id="flowRoot2287" />
  <path
     d="M -124.57525,256.3676 C -124.57525,256.62359 -124.72458,257.05025 -125.02325,257.6476 C -125.10858,257.77559 -125.15124,257.92492 -125.15125,258.0956 C -125.15124,258.69292 -124.72458,259.03425 -123.87125,259.1196 C -121.14058,259.11958 -119.07125,255.66359 -117.66325,248.7516 L -112.03125,221.8716 L -117.79125,221.8716 L -117.34325,219.8236 L -111.45525,219.8236 C -109.53526,213.67963 -107.52993,209.4343 -105.43925,207.0876 C -103.43393,204.91164 -101.08727,203.82364 -98.39925,203.8236 C -96.052607,203.82364 -94.388609,204.61297 -93.40725,206.1916 C -93.065944,206.7463 -92.895277,207.34364 -92.89525,207.9836 C -92.895277,209.13563 -93.449943,209.92497 -94.55925,210.3516 C -94.900608,210.47963 -95.241941,210.54363 -95.58325,210.5436 C -96.863273,210.54363 -97.631272,209.90363 -97.88725,208.6236 C -97.929939,208.4103 -97.951272,208.19697 -97.95125,207.9836 C -97.951272,207.72764 -97.759272,207.17297 -97.37525,206.3196 C -97.332606,206.19164 -97.311273,206.08497 -97.31125,205.9996 C -97.311273,205.48764 -97.780606,205.23164 -98.71925,205.2316 C -100.76727,205.23164 -102.47393,206.91697 -103.83925,210.2876 C -104.6926,212.42096 -105.5886,215.59963 -106.52725,219.8236 L -111.58325,242.3516 C -113.92992,252.89026 -117.53525,258.84225 -122.39925,260.2076 C -123.03925,260.37825 -123.70058,260.46358 -124.38325,260.4636 C -126.51658,260.46358 -128.03124,259.71692 -128.92725,258.2236 C -129.26857,257.71159 -129.43924,257.15692 -129.43925,256.5596 C -129.43924,255.27959 -128.90591,254.44759 -127.83925,254.0636 C -127.58324,253.97826 -127.32724,253.93559 -127.07125,253.9356 C -125.96191,253.93559 -125.19391,254.44759 -124.76725,255.4716 C -124.63925,255.77025 -124.57525,256.06892 -124.57525,256.3676 M -92.04125,247.9196 C -92.766593,247.9196 -94.259925,247.62093 -96.52125,247.0236 C -97.374588,246.81026 -98.099921,246.7036 -98.69725,246.7036 C -99.294586,246.7036 -99.806586,247.1516 -100.23325,248.0476 L -101.25725,248.0476 L -99.97725,237.8716 L -98.95325,237.8716 C -98.099921,242.9916 -96.371923,245.85026 -93.76925,246.4476 C -93.342592,246.53293 -92.894593,246.5756 -92.42525,246.5756 C -90.291929,246.5756 -88.841263,245.65826 -88.07325,243.8236 C -87.817264,243.14093 -87.689265,242.4156 -87.68925,241.6476 C -87.689265,239.8556 -88.734597,237.61561 -90.82525,234.9276 C -92.830593,232.28228 -94.067925,230.42628 -94.53725,229.3596 C -95.049257,228.25028 -95.305257,227.14095 -95.30525,226.0316 C -95.305257,223.00229 -93.982592,220.91162 -91.33725,219.7596 C -90.227929,219.24762 -88.969263,218.99162 -87.56125,218.9916 C -86.835932,218.99162 -85.3426,219.26896 -83.08125,219.8236 C -82.483936,219.99429 -82.014604,220.07962 -81.67325,220.0796 C -80.819938,220.07962 -80.179939,219.69562 -79.75325,218.9276 L -78.85725,218.9276 L -80.13725,227.8236 L -81.16125,227.8236 C -81.80127,222.91695 -83.763935,220.46362 -87.04925,220.4636 C -89.054597,220.46362 -90.227929,221.33829 -90.56925,223.0876 C -90.611928,223.34362 -90.633262,223.62095 -90.63325,223.9196 C -90.633262,225.37028 -89.609263,227.43962 -87.56125,230.1276 C -85.3426,233.07161 -83.977268,235.20494 -83.46525,236.5276 C -83.038603,237.59427 -82.825269,238.61827 -82.82525,239.5996 C -82.825269,242.71427 -84.169268,245.06093 -86.85725,246.6396 C -88.350597,247.49293 -90.078596,247.9196 -92.04125,247.9196 M -3.67825,230.7036 L -19.87025,243.8876 L -21.27825,241.7756 L -11.10225,232.5596 L -57.95025,232.5596 L -56.92625,228.9756 L -10.07825,228.9756 L -15.13425,219.7596 L -12.57425,217.6476 L -3.67825,230.7036 M 47.89575,212.1436 C 47.895718,215.30096 46.35972,217.86096 43.28775,219.8236 C 41.794391,220.80496 39.85306,221.74362 37.46375,222.6396 L 37.46375,222.8316 C 41.645058,223.34362 44.205055,225.51962 45.14375,229.3596 C 45.314388,230.12761 45.399721,230.87428 45.39975,231.5996 C 45.399721,235.43961 44.183722,239.0236 41.75175,242.3516 C 38.978394,246.14893 35.650397,248.0476 31.76775,248.0476 C 29.335737,248.0476 27.735739,247.19426 26.96775,245.4876 C 26.754406,244.9756 26.64774,244.42093 26.64775,243.8236 C 26.64774,242.24493 27.309072,241.28494 28.63175,240.9436 C 28.887737,240.85827 29.165071,240.8156 29.46375,240.8156 C 30.786402,240.8156 31.575735,241.4556 31.83175,242.7356 C 31.874401,242.94893 31.895734,243.16227 31.89575,243.3756 C 31.895734,243.80227 31.682401,244.48493 31.25575,245.4236 C 31.170402,245.59426 31.127735,245.72226 31.12775,245.8076 C 31.127735,246.27693 31.511735,246.55426 32.27975,246.6396 C 35.309064,246.6396 37.549062,243.41827 38.99975,236.9756 C 39.554393,234.37294 39.831727,232.19694 39.83175,230.4476 C 39.831727,226.01028 38.103728,223.72762 34.64775,223.5996 C 33.581066,223.55695 33.0264,223.23695 32.98375,222.6396 C 33.1544,222.12762 33.517066,221.85029 34.07175,221.8076 C 37.357062,221.80762 39.78906,220.20762 41.36775,217.0076 C 42.306391,215.08763 42.775724,212.84763 42.77575,210.2876 C 42.605057,207.04497 41.282392,205.35964 38.80775,205.2316 C 35.095731,205.23164 32.002401,209.8823 29.52775,219.1836 L 22.42375,246.4476 C 20.674412,253.18892 17.965082,257.54092 14.29575,259.5036 C 13.101087,260.14358 11.863754,260.46358 10.58375,260.4636 C 8.1517582,260.46358 6.5730931,259.61025 5.84775,257.9036 C 5.677094,257.47692 5.5917608,257.00759 5.59175,256.4956 C 5.8904271,254.87426 6.7224263,253.97826 8.08775,253.8076 C 9.4104236,253.80759 10.221089,254.36226 10.51975,255.4716 C 10.605089,255.68492 10.647756,255.89825 10.64775,256.1116 C 10.647756,256.45292 10.434423,257.09292 10.00775,258.0316 C 9.9224231,258.15959 9.8797565,258.28759 9.87975,258.4156 C 9.8797565,258.75692 10.263756,258.92758 11.03175,258.9276 C 12.951753,258.92758 14.466419,257.62625 15.57575,255.0236 C 16.34375,253.35959 17.090416,250.84226 17.81575,247.4716 L 22.42375,227.0556 C 24.983741,215.66363 28.418405,208.51697 32.72775,205.6156 C 34.562398,204.37831 36.653063,203.75964 38.99975,203.7596 C 42.583724,203.75964 45.165055,205.08231 46.74375,207.7276 C 47.511719,209.00763 47.895718,210.47963 47.89575,212.1436"
     transform="translate(463.91857,144.48905)"
     style="font-size:56px;font-style:italic;font-variant:normal;font-weight:normal;font-stretch:normal;text-align:start;line-height:125%;writing-mode:lr-tb;text-anchor:start;fill:#000000;font-family:FreeSerif"
     id="flowRoot2295" />
  <path
     d="M -98.48748,256.3676 C -98.48748,256.62359 -98.63681,257.05025 -98.93548,257.6476 C -99.02081,257.77559 -99.06347,257.92492 -99.06348,258.0956 C -99.06347,258.69292 -98.63681,259.03425 -97.78348,259.1196 C -95.05281,259.11958 -92.98348,255.66359 -91.57548,248.7516 L -85.94348,221.8716 L -91.70348,221.8716 L -91.25548,219.8236 L -85.36748,219.8236 C -83.44749,213.67963 -81.44216,209.4343 -79.35148,207.0876 C -77.34616,204.91164 -74.9995,203.82364 -72.31148,203.8236 C -69.964837,203.82364 -68.300839,204.61297 -67.31948,206.1916 C -66.978174,206.7463 -66.807507,207.34364 -66.80748,207.9836 C -66.807507,209.13563 -67.362173,209.92497 -68.47148,210.3516 C -68.812838,210.47963 -69.154171,210.54363 -69.49548,210.5436 C -70.775503,210.54363 -71.543502,209.90363 -71.79948,208.6236 C -71.842169,208.4103 -71.863502,208.19697 -71.86348,207.9836 C -71.863502,207.72764 -71.671502,207.17297 -71.28748,206.3196 C -71.244836,206.19164 -71.223503,206.08497 -71.22348,205.9996 C -71.223503,205.48764 -71.692836,205.23164 -72.63148,205.2316 C -75.36217,205.23164 -77.53816,208.1543 -79.15948,213.9996 C -79.58616,215.66363 -80.01283,217.60496 -80.43948,219.8236 L -73.52748,219.8236 L -73.91148,221.8716 L -80.88748,221.8716 L -85.49548,242.3516 C -87.84215,252.89026 -91.44748,258.84225 -96.31148,260.2076 C -96.95148,260.37825 -97.61281,260.46358 -98.29548,260.4636 C -100.42881,260.46358 -101.94347,259.71692 -102.83948,258.2236 C -103.1808,257.71159 -103.35147,257.15692 -103.35148,256.5596 C -103.35147,255.27959 -102.81814,254.44759 -101.75148,254.0636 C -101.49547,253.97826 -101.23947,253.93559 -100.98348,253.9356 C -99.87414,253.93559 -99.10614,254.44759 -98.67948,255.4716 C -98.55148,255.77025 -98.48748,256.06892 -98.48748,256.3676 M -77.435067,256.3676 C -77.435062,256.62359 -77.584396,257.05025 -77.883067,257.6476 C -77.968395,257.77559 -78.011062,257.92492 -78.011067,258.0956 C -78.011062,258.69292 -77.584396,259.03425 -76.731067,259.1196 C -74.000399,259.11958 -71.931068,255.66359 -70.523067,248.7516 L -64.891067,221.8716 L -70.651067,221.8716 L -70.203067,219.8236 L -64.315067,219.8236 C -62.395077,213.67963 -60.389746,209.4343 -58.299067,207.0876 C -56.29375,204.91164 -53.947086,203.82364 -51.259067,203.8236 C -48.912424,203.82364 -47.248426,204.61297 -46.267067,206.1916 C -45.925761,206.7463 -45.755094,207.34364 -45.755067,207.9836 C -45.755094,209.13563 -46.30976,209.92497 -47.419067,210.3516 C -47.760425,210.47963 -48.101758,210.54363 -48.443067,210.5436 C -49.72309,210.54363 -50.491089,209.90363 -50.747067,208.6236 C -50.789756,208.4103 -50.811089,208.19697 -50.811067,207.9836 C -50.811089,207.72764 -50.619089,207.17297 -50.235067,206.3196 C -50.192423,206.19164 -50.17109,206.08497 -50.171067,205.9996 C -50.17109,205.48764 -50.640423,205.23164 -51.579067,205.2316 C -54.309752,205.23164 -56.48575,208.1543 -58.107067,213.9996 C -58.533748,215.66363 -58.960414,217.60496 -59.387067,219.8236 L -52.475067,219.8236 L -52.859067,221.8716 L -59.835067,221.8716 L -64.443067,242.3516 C -66.78974,252.89026 -70.395069,258.84225 -75.259067,260.2076 C -75.899064,260.37825 -76.560397,260.46358 -77.243067,260.4636 C -79.376394,260.46358 -80.891059,259.71692 -81.787067,258.2236 C -82.128391,257.71159 -82.299058,257.15692 -82.299067,256.5596 C -82.299058,255.27959 -81.765725,254.44759 -80.699067,254.0636 C -80.443059,253.97826 -80.18706,253.93559 -79.931067,253.9356 C -78.821728,253.93559 -78.053729,254.44759 -77.627067,255.4716 C -77.499062,255.77025 -77.435062,256.06892 -77.435067,256.3676 M -43.57125,244.9116 C -42.589927,244.9116 -40.840595,243.2476 -38.32325,239.9196 L -37.49125,240.6236 C -40.221929,244.63427 -42.568593,246.9596 -44.53125,247.5996 C -45.128591,247.81293 -45.76859,247.9196 -46.45125,247.9196 C -48.413921,247.9196 -49.395253,246.7036 -49.39525,244.2716 C -49.395253,243.03427 -48.92592,240.70894 -47.98725,237.2956 L -44.91525,225.9676 C -44.531258,224.68762 -44.339258,223.74895 -44.33925,223.1516 C -44.339258,222.42629 -44.723258,221.97829 -45.49125,221.8076 C -46.003257,221.72229 -46.963256,221.65829 -48.37125,221.6156 L -48.37125,220.5916 C -46.408589,220.42096 -42.99526,219.88762 -38.13125,218.9916 L -37.93925,219.1196 L -43.95525,241.1356 C -44.381925,242.6716 -44.595258,243.61027 -44.59525,243.9516 C -44.595258,244.37827 -44.339258,244.67693 -43.82725,244.8476 C -43.741925,244.89027 -43.656592,244.9116 -43.57125,244.9116 M -38.83525,205.3596 C -37.555265,205.35964 -36.595266,206.02097 -35.95525,207.3436 C -35.741933,207.85564 -35.635267,208.36764 -35.63525,208.8796 C -35.635267,210.24497 -36.253933,211.2263 -37.49125,211.8236 C -37.875265,212.03696 -38.301931,212.14363 -38.77125,212.1436 C -40.349929,212.14363 -41.331261,211.37563 -41.71525,209.8396 C -41.800594,209.4983 -41.843261,209.13563 -41.84325,208.7516 C -41.843261,207.17297 -41.203261,206.1063 -39.92325,205.5516 C -39.58193,205.42364 -39.219263,205.35964 -38.83525,205.3596 M 38.94675,230.7036 L 22.75475,243.8876 L 21.34675,241.7756 L 31.52275,232.5596 L -15.32525,232.5596 L -14.30125,228.9756 L 32.54675,228.9756 L 27.49075,219.7596 L 30.05075,217.6476 L 38.94675,230.7036 M 104.85675,219.5036 C 104.8567,220.78362 103.70471,225.05029 101.40075,232.3036 C 99.438043,238.53294 98.456711,242.4796 98.45675,244.1436 C 98.456711,244.61293 98.71271,244.8476 99.22475,244.8476 C 100.12071,244.8476 101.76337,243.3756 104.15275,240.4316 L 105.17675,241.0076 C 102.31804,244.9756 99.843376,247.17293 97.75275,247.5996 C 97.411378,247.68493 97.091379,247.7276 96.79275,247.7276 C 95.086047,247.7276 94.062048,246.91693 93.72075,245.2956 C 93.678049,245.0396 93.656715,244.76227 93.65675,244.4636 C 93.656715,242.88493 95.342047,236.25027 98.71275,224.5596 C 98.883377,223.91962 99.011377,223.42895 99.09675,223.0876 C 99.182043,222.83162 99.22471,222.66095 99.22475,222.5756 C 99.22471,222.10629 98.862043,221.87162 98.13675,221.8716 L 88.21675,221.8716 L 83.60875,242.3516 C 80.878061,254.42626 76.590066,260.46358 70.74475,260.4636 C 68.611407,260.46358 67.118075,259.75958 66.26475,258.3516 C 65.92341,257.79692 65.752743,257.17825 65.75275,256.4956 C 65.752743,255.30092 66.243409,254.51159 67.22475,254.1276 C 67.523408,253.99959 67.822074,253.93559 68.12075,253.9356 C 69.230073,253.93559 69.998072,254.42626 70.42475,255.4076 C 70.552738,255.70625 70.616738,256.00492 70.61675,256.3036 C 70.616738,256.51692 70.467405,256.96492 70.16875,257.6476 C 70.083406,257.81825 70.040739,257.96759 70.04075,258.0956 C 70.040739,258.65025 70.467405,258.92758 71.32075,258.9276 L 71.57675,258.9276 C 74.136735,258.92758 76.120733,255.53559 77.52875,248.7516 L 81.24075,230.5116 L 82.52075,223.8556 C 82.73406,223.13029 82.968726,222.46895 83.22475,221.8716 L 72.40875,221.8716 L 67.80075,242.3516 C 65.070077,254.42626 60.782082,260.46358 54.93675,260.4636 C 52.803423,260.46358 51.310091,259.75958 50.45675,258.3516 C 50.115426,257.79692 49.944759,257.17825 49.94475,256.4956 C 49.944759,255.30092 50.435425,254.51159 51.41675,254.1276 C 51.715424,253.99959 52.01409,253.93559 52.31275,253.9356 C 53.422089,253.93559 54.190088,254.42626 54.61675,255.4076 C 54.744754,255.70625 54.808754,256.00492 54.80875,256.3036 C 54.808754,256.51692 54.659421,256.96492 54.36075,257.6476 C 54.275421,257.81825 54.232755,257.96759 54.23275,258.0956 C 54.232755,258.65025 54.659421,258.92758 55.51275,258.9276 L 55.76875,258.9276 C 58.328751,258.92758 60.312749,255.53559 61.72075,248.7516 L 65.43275,230.5116 L 66.71275,223.8556 C 66.926075,223.13029 67.160742,222.46895 67.41675,221.8716 L 61.84875,221.8716 L 62.29675,219.8236 L 67.86475,219.8236 C 69.827406,213.0823 72.36607,208.5383 75.48075,206.1916 C 77.656731,204.48497 80.280729,203.63164 83.35275,203.6316 C 85.82739,203.63164 87.662055,204.31431 88.85675,205.6796 C 89.326053,206.2343 89.603386,206.8743 89.68875,207.5996 C 92.163383,204.95431 95.320714,203.63164 99.16075,203.6316 C 101.63537,203.63164 103.47004,204.31431 104.66475,205.6796 C 105.26204,206.3623 105.5607,207.15164 105.56075,208.0476 C 105.5607,209.4983 104.9207,210.3943 103.64075,210.7356 C 103.38471,210.7783 103.12871,210.79963 102.87275,210.7996 C 101.55004,210.79963 100.71804,210.2023 100.37675,209.0076 C 100.29138,208.75163 100.24871,208.4743 100.24875,208.1756 C 100.24871,207.5783 100.46204,207.02364 100.88875,206.5116 C 101.01671,206.38364 101.08071,206.2343 101.08075,206.0636 C 101.08071,205.38097 100.33404,205.03964 98.84075,205.0396 C 95.17138,205.03964 92.355383,207.8983 90.39275,213.6156 C 90.264719,213.99963 89.667386,216.06896 88.60075,219.8236 L 98.20075,219.8236 L 104.53675,219.3116 L 104.85675,219.5036 M 87.25675,210.7996 C 85.63539,210.79963 84.718058,210.11697 84.50475,208.7516 C 84.462058,208.58097 84.440725,208.38897 84.44075,208.1756 C 84.440725,207.5783 84.654058,207.02364 85.08075,206.5116 C 85.208724,206.38364 85.272724,206.2343 85.27275,206.0636 C 85.272724,205.38097 84.526058,205.03964 83.03275,205.0396 C 79.363396,205.03964 76.547399,207.8983 74.58475,213.6156 C 74.456735,213.99963 73.859402,216.06896 72.79275,219.8236 L 83.67275,219.8236 C 84.782058,215.98363 85.976723,212.97563 87.25675,210.7996"
     transform="translate(421.47451,223.05624)"
     style="font-size:56px;font-style:italic;font-variant:normal;font-weight:normal;font-stretch:normal;text-align:start;line-height:125%;writing-mode:lr-tb;text-anchor:start;fill:#000000;font-family:FreeSerif"
     id="flowRoot2303" />
</svg>
