<svg version="1.2" xmlns="http://www.w3.org/2000/svg" viewBox="0 0 1741 604" width="1741" height="604"><defs><clipPath clipPathUnits="userSpaceOnUse" id="cp1"><path d="m4362.88 6897.32v2134.59h-3533.5v-2134.59z"/></clipPath></defs><style>.a{fill:#111827}.b{mix-blend-mode:color;fill:#e3479a}.c{opacity:.69;fill:#e3479a}.d{fill:#e3479a}.e{fill:#f9fafb}</style><path fill-rule="evenodd" class="a" d="m4362.9 4762.7v2134.6h-3533.5v-2134.6z"/><g clip-path="url(#cp1)"></g><path fill-rule="evenodd" class="b" d="m7896.4 4762.7v2134.6h-3533.5v-2134.6z"/><path fill-rule="evenodd" class="c" d="m7896.4 4762.7v2134.6h-3533.5v-2134.6z"/><path fill-rule="evenodd" class="d" d="m4389.8 4655.1v4475.6h-53.8v-4475.6z"/><path fill-rule="evenodd" class="d" d="m8028.8 6870.4v53.8h-7305.7v-53.8z"/><path fill-rule="evenodd" class="e" d="m5555.7 6939.5v137h-713.7v-137z"/><path class="d" d="m153.3 484.2c0-71.6 58.1-129.7 129.7-129.7 71.6 0 129.6 58.1 129.6 129.7 0 51.2-29.7 95.5-72.8 116.6v-70.5c0-31.4-25.5-56.8-56.8-56.8-31.4 0-56.8 25.4-56.8 56.8v70.5c-43.2-21.1-72.9-65.4-72.9-116.6z"/><path class="d" d="m203.5 122c62 35.8 83.3 115.1 47.5 177.1-35.8 62-115.1 83.3-177.1 47.5-44.4-25.7-67.9-73.5-64.5-121.4l61 35.2c27.2 15.7 61.9 6.4 77.6-20.8 15.7-27.2 6.4-61.9-20.8-77.6l-61-35.2c39.8-26.9 93-30.5 137.3-4.8z"/><path class="d" d="m492 346.6c-62 35.8-141.3 14.5-177.1-47.5-35.7-62-14.5-141.3 47.5-177.1 44.4-25.7 97.6-22.1 137.4 4.8l-61.1 35.2c-27.1 15.7-36.4 50.4-20.8 77.6 15.7 27.2 50.5 36.5 77.6 20.8l61.1-35.2c3.3 47.9-20.2 95.7-64.6 121.4z"/><path fill-rule="evenodd" d="m283 123.5c-32.7 0-59.1-26.4-59.1-59 0-32.7 26.4-59.1 59.1-59.1 32.6 0 59 26.4 59 59.1 0 32.6-26.4 59-59 59z"/><path  d="m93.4 495.3c28.2-16.3 37.9-52.5 21.6-80.7-16.3-28.3-52.4-37.9-80.7-21.6-28.2 16.3-37.9 52.4-21.6 80.7 16.3 28.2 52.4 37.9 80.7 21.6z"/><path  d="m531.6 393c-28.2-16.3-64.3-6.7-80.6 21.6-16.3 28.2-6.7 64.4 21.6 80.7 28.2 16.3 64.3 6.6 80.6-21.6 16.4-28.3 6.7-64.4-21.6-80.7z"/><path  d="m688.1 253.3q6.2 0 11.4-2.2 5.3-2.1 9.1-6 3.9-3.9 6.1-9.2 2.1-5.4 2.1-11.7v-83.8h23.8v83.8q0 10.9-4 20.2-3.9 9.3-11 16.1-7 6.9-16.6 10.7-9.6 3.9-20.9 3.9-11.5 0-21.1-3.8-9.6-3.7-16.5-10.5-6.9-6.7-10.9-16.1-3.9-9.4-3.9-20.5v-83.8h23.7v83.8q0 6.3 2.2 11.7 2.2 5.3 5.9 9.2 3.8 3.9 9.1 6 5.4 2.2 11.5 2.2z"/><path  d="m887.5 234.9q0 19-13.3 29.6-13.3 10.6-37.2 10.6-12.7 0-22.9-3.2-10.2-3.1-17.3-9-7.1-5.8-10.9-14.2-3.7-8.5-3.7-18.8h23.7q0 5 2.3 9.3 2.3 4.4 6.4 7.5 4.2 3 9.9 4.8 5.8 1.8 12.5 1.8 11.9 0 19.3-4.7 7.4-4.8 7.4-12.3 0-7.3-6.9-11.9-6.9-4.6-22.6-7.3-24.7-4.6-35.9-13.7-11.2-9.1-11.2-24.7 0-9 3.5-16.3 3.4-7.3 9.8-12.7 6.3-5.3 15-8.3 8.7-2.9 19.2-2.9 10.5 0 19.3 2.9 8.8 3 15.2 8.4 6.3 5.5 9.9 12.9 3.5 7.4 3.5 16.4h-23.7q0-8.4-6.8-13.6-6.7-5.3-17.6-5.3-10.5 0-17 4.3-6.5 4.3-6.5 11.2 0 6.9 7.1 11.3 7.1 4.3 23.6 7.7 12.2 2.4 20.9 5.8 8.7 3.5 14.3 8.4 5.5 4.8 8.1 11.2 2.6 6.5 2.6 14.8z"/><path  d="m1022.1 162.2h-69.3v32.7h62.4v21.8h-62.4v34.6h69.3v21.8h-93.1v-132.7h93.1z"/><path  d="m1203.4 140.4h19.4l29.7 94.7 27.7-94.7h25l-40.6 132.7h-22.8l-28.7-90.3-28.7 90.3h-22.7l-40.6-132.7h24.9l27.7 94.7z"/><path  d="m1451.7 140.4v132.7h-23.8v-58.4h-63.3v58.4h-23.8v-132.7h23.8v52.5h63.3v-52.5z"/><path fill-rule="evenodd" d="m1485.3 273.1l51.7-132.7h23.7l51.5 132.7h-25.5l-9.7-25.7h-56.4l-9.7 25.7zm43.5-47.5h40l-20-53.1z"/><path  d="m1730 162.2h-41.6v110.9h-23.7v-110.9h-41.6v-21.8h106.9z"/><path class="d" d="m765.7 324.5h30.6l46.9 149.4 43.7-149.4h39.4l-64.1 209.5h-35.9l-45.3-142.6-45.3 142.6h-36l-64-209.5h39.3l43.8 149.4z"/><path fill-rule="evenodd" class="d" d="m938.8 429.2q0-23.7 8.1-43.6 8.1-19.8 22.7-34 14.5-14.2 34.5-22.2 20-8 44.1-8 24 0 44.2 8 20.1 8 34.7 22.2 14.5 14.2 22.6 34 8.1 19.9 8.1 43.6 0 23.2-8.2 43-8.3 19.9-23 34.3-14.7 14.3-34.7 22.5-20 8.1-43.7 8.1-24.1 0-44.1-8-20-8-34.5-22.3-14.6-14.4-22.7-34.1-8.1-19.7-8.1-43.5zm37.5 0q0 16 5.3 29.6 5.3 13.6 14.8 23.3 9.6 9.7 22.7 15.1 13.1 5.5 29.1 5.5 15.6 0 28.9-5.5 13.2-5.4 22.8-15.3 9.5-9.8 15-23.3 5.4-13.4 5.4-29.4 0-16.2-5.3-29.6-5.3-13.5-14.8-23.2-9.6-9.7-22.8-15.1-13.3-5.5-29.2-5.5-16 0-29.1 5.5-13.1 5.4-22.7 15.1-9.5 9.7-14.8 23.2-5.3 13.4-5.3 29.6z"/><path fill-rule="evenodd" class="d" d="m1351.6 393.6q0 22.5-11.7 38.3-11.8 15.8-32.7 22.7 10.6 9.7 18.8 24l31.8 55.4h-43.4l-22.2-38.5q-10.3-17.8-23.9-25.3-13.6-7.5-35.2-7.5h-6.5v71.3h-37.5v-209.5h85.3q17.8 0 32 4.9 14.2 4.8 24.2 13.9 10 9.1 15.5 21.7 5.5 12.7 5.5 28.6zm-125 34.7h47.8q17.8 0 28.7-9.2 11-9.2 11-25.5 0-15.9-10.6-25.3-10.7-9.4-29.1-9.4h-47.8z"/><path class="d" d="m1423.5 407.4h6.2q15.9 0 30-6.4 14.1-6.4 24.4-17.7 10.3-11.2 16.2-26.4 6-15.2 6-32.4h34.3q0 33.2-14.8 59.7-14.9 26.6-40.5 41.6 10 6.6 18.6 17.2 8.6 10.6 17 26.6l35 64.4h-42.8l-25.9-47.9q-6.9-12.8-13.3-21.4-6.4-8.6-13.4-13.7-7.1-5.2-15.2-7.2-8.1-2-18.7-2h-3.1v92.2h-37.5v-209.5h37.5z"/><path class="d" d="m1737.8 473.6q0 30-20.9 46.8-21 16.7-58.8 16.7-20 0-36.1-5-16.1-5-27.3-14.2-11.3-9.3-17.2-22.5-5.9-13.3-5.9-29.6h37.5q0 7.8 3.6 14.7 3.6 6.9 10.1 11.7 6.6 4.9 15.6 7.7 9.1 2.8 19.7 2.8 18.8 0 30.5-7.5 11.7-7.5 11.7-19.4 0-11.5-10.9-18.7-11-7.2-35.6-11.6-39.1-7.2-56.8-21.6-17.6-14.3-17.6-39 0-14.1 5.5-25.7 5.4-11.5 15.4-20 10-8.4 23.8-13.1 13.7-4.7 30.3-4.7 16.5 0 30.5 4.7 13.9 4.7 23.9 13.3 10 8.6 15.6 20.3 5.6 11.7 5.6 25.8h-37.5q0-13.1-10.6-21.4-10.6-8.3-27.8-8.3-16.6 0-26.9 6.7-10.3 6.7-10.3 17.7 0 10.9 11.2 17.8 11.3 6.9 37.2 12.2 19.4 3.7 33.1 9.2 13.8 5.5 22.5 13.1 8.8 7.7 12.9 17.8 4 10.2 4 23.3z"/></svg>